<?xml version="1.0" encoding="UTF-8"?>
<svg xmlns="http://www.w3.org/2000/svg" xmlns:xlink="http://www.w3.org/1999/xlink" width="40px" height="40px" viewBox="0 0 40 40" version="1.1">
<g id="surface1">
<path style=" stroke:none;fill-rule:nonzero;fill:rgb(94.901961%,46.27451%,21.176471%);fill-opacity:1;" d="M 20 0.585938 C 20.164062 0.617188 20.207031 0.675781 20.304688 0.816406 C 20.332031 0.855469 20.359375 0.894531 20.386719 0.933594 C 20.484375 1.074219 20.574219 1.21875 20.664062 1.363281 C 20.722656 1.453125 20.78125 1.542969 20.839844 1.632812 C 21.191406 2.171875 21.546875 2.71875 21.828125 3.300781 C 21.882812 3.417969 21.949219 3.523438 22.019531 3.628906 C 22.175781 3.882812 22.304688 4.140625 22.421875 4.414062 C 22.46875 4.507812 22.515625 4.601562 22.5625 4.695312 C 22.746094 5.054688 22.914062 5.417969 23.085938 5.78125 C 23.175781 5.664062 23.257812 5.542969 23.339844 5.421875 C 23.488281 5.195312 23.640625 4.972656 23.792969 4.75 C 23.8125 4.726562 23.828125 4.699219 23.847656 4.675781 C 23.871094 4.636719 23.871094 4.636719 23.898438 4.601562 C 23.929688 4.554688 23.960938 4.507812 23.988281 4.460938 C 24.027344 4.40625 24.0625 4.351562 24.101562 4.296875 C 24.128906 4.296875 24.152344 4.296875 24.179688 4.296875 C 24.191406 4.265625 24.191406 4.265625 24.207031 4.238281 C 24.277344 4.101562 24.363281 3.980469 24.453125 3.859375 C 24.480469 3.820312 24.480469 3.820312 24.507812 3.78125 C 24.550781 3.714844 24.601562 3.65625 24.648438 3.59375 C 24.675781 3.59375 24.699219 3.59375 24.726562 3.59375 C 24.734375 3.566406 24.742188 3.539062 24.75 3.511719 C 24.820312 3.363281 24.917969 3.257812 25.023438 3.136719 C 25.066406 3.089844 25.109375 3.039062 25.152344 2.992188 C 25.171875 2.96875 25.191406 2.945312 25.214844 2.921875 C 25.324219 2.792969 25.425781 2.660156 25.527344 2.527344 C 25.554688 2.496094 25.554688 2.496094 25.585938 2.460938 C 25.613281 2.460938 25.636719 2.460938 25.664062 2.460938 C 25.675781 2.429688 25.683594 2.398438 25.695312 2.367188 C 25.710938 2.332031 25.726562 2.300781 25.742188 2.265625 C 25.800781 2.246094 25.800781 2.246094 25.859375 2.226562 C 25.886719 2.175781 25.910156 2.121094 25.9375 2.070312 C 26 1.988281 26.066406 1.914062 26.132812 1.835938 C 26.296875 1.859375 26.429688 1.917969 26.578125 1.988281 C 26.601562 2 26.625 2.011719 26.648438 2.023438 C 26.722656 2.0625 26.800781 2.097656 26.875 2.136719 C 26.972656 2.183594 27.070312 2.234375 27.171875 2.28125 C 27.195312 2.292969 27.21875 2.304688 27.242188 2.316406 C 27.546875 2.464844 27.851562 2.613281 28.164062 2.734375 C 28.164062 2.886719 28.113281 2.921875 28.011719 3.035156 C 27.984375 3.066406 27.957031 3.097656 27.925781 3.128906 C 27.851562 3.203125 27.851562 3.203125 27.773438 3.203125 C 27.761719 3.226562 27.753906 3.246094 27.742188 3.269531 C 27.691406 3.367188 27.628906 3.441406 27.558594 3.523438 C 27.535156 3.554688 27.511719 3.582031 27.488281 3.609375 C 27.421875 3.671875 27.421875 3.671875 27.34375 3.671875 C 27.328125 3.71875 27.328125 3.71875 27.3125 3.765625 C 27.296875 3.800781 27.28125 3.832031 27.265625 3.867188 C 27.207031 3.886719 27.207031 3.886719 27.148438 3.90625 C 27.136719 3.933594 27.125 3.964844 27.113281 3.992188 C 27.058594 4.128906 26.976562 4.195312 26.875 4.296875 C 26.785156 4.40625 26.703125 4.519531 26.621094 4.632812 C 26.578125 4.691406 26.53125 4.75 26.484375 4.804688 C 26.457031 4.804688 26.433594 4.804688 26.40625 4.804688 C 26.398438 4.832031 26.386719 4.859375 26.378906 4.890625 C 26.320312 5.015625 26.253906 5.097656 26.164062 5.203125 C 26.027344 5.367188 25.898438 5.535156 25.777344 5.714844 C 25.707031 5.816406 25.636719 5.914062 25.566406 6.011719 C 25.386719 6.257812 25.21875 6.507812 25.0625 6.765625 C 24.980469 6.898438 24.894531 7.03125 24.808594 7.160156 C 24.675781 7.355469 24.558594 7.558594 24.445312 7.765625 C 24.414062 7.816406 24.414062 7.816406 24.378906 7.871094 C 24.359375 7.90625 24.339844 7.941406 24.320312 7.976562 C 24.304688 8.007812 24.285156 8.039062 24.265625 8.070312 C 24.160156 8.261719 24.160156 8.261719 24.171875 8.472656 C 24.1875 8.511719 24.207031 8.550781 24.222656 8.59375 C 24.292969 8.757812 24.355469 8.921875 24.40625 9.09375 C 24.46875 9.296875 24.53125 9.496094 24.601562 9.695312 C 24.742188 10.109375 24.867188 10.523438 24.984375 10.945312 C 25.042969 11.167969 25.109375 11.390625 25.179688 11.609375 C 25.296875 11.980469 25.382812 12.355469 25.46875 12.734375 C 25.550781 12.632812 25.609375 12.535156 25.664062 12.414062 C 25.675781 12.382812 25.691406 12.351562 25.707031 12.316406 C 25.71875 12.285156 25.734375 12.25 25.75 12.21875 C 25.964844 11.734375 26.1875 11.265625 26.460938 10.8125 C 26.523438 10.707031 26.582031 10.597656 26.636719 10.492188 C 26.863281 10.078125 27.121094 9.6875 27.382812 9.296875 C 27.410156 9.257812 27.433594 9.21875 27.460938 9.179688 C 27.636719 8.914062 27.832031 8.660156 28.023438 8.40625 C 28.070312 8.339844 28.121094 8.273438 28.167969 8.210938 C 28.3125 8.015625 28.460938 7.820312 28.609375 7.625 C 28.636719 7.59375 28.660156 7.5625 28.6875 7.53125 C 28.707031 7.507812 28.726562 7.484375 28.75 7.460938 C 28.777344 7.460938 28.800781 7.460938 28.828125 7.460938 C 28.839844 7.429688 28.847656 7.398438 28.859375 7.367188 C 28.882812 7.316406 28.882812 7.316406 28.90625 7.265625 C 28.945312 7.253906 28.984375 7.238281 29.023438 7.226562 C 29.035156 7.199219 29.046875 7.167969 29.058594 7.140625 C 29.113281 7.003906 29.191406 6.9375 29.296875 6.835938 C 29.335938 6.792969 29.375 6.753906 29.414062 6.710938 C 29.703125 6.398438 30 6.089844 30.300781 5.785156 C 30.34375 5.742188 30.382812 5.703125 30.425781 5.660156 C 30.480469 5.601562 30.539062 5.542969 30.597656 5.488281 C 30.648438 5.4375 30.648438 5.4375 30.699219 5.386719 C 30.78125 5.3125 30.78125 5.3125 30.859375 5.3125 C 30.871094 5.273438 30.886719 5.234375 30.898438 5.195312 C 31.015625 5.117188 31.015625 5.117188 31.09375 5.125 C 31.1875 5.164062 31.234375 5.210938 31.304688 5.285156 C 31.339844 5.324219 31.339844 5.324219 31.378906 5.367188 C 31.402344 5.394531 31.429688 5.421875 31.453125 5.453125 C 31.507812 5.507812 31.558594 5.566406 31.613281 5.625 C 31.636719 5.652344 31.664062 5.679688 31.6875 5.707031 C 31.769531 5.796875 31.855469 5.878906 31.941406 5.964844 C 32.046875 6.066406 32.136719 6.175781 32.226562 6.289062 C 32.328125 6.394531 32.417969 6.480469 32.539062 6.5625 C 32.539062 6.679688 32.539062 6.679688 32.480469 6.738281 C 32.441406 6.773438 32.441406 6.773438 32.402344 6.804688 C 32.285156 6.902344 32.175781 7.003906 32.066406 7.113281 C 31.972656 7.207031 31.878906 7.296875 31.773438 7.382812 C 31.652344 7.488281 31.546875 7.601562 31.445312 7.726562 C 31.324219 7.859375 31.195312 7.984375 31.066406 8.113281 C 30.992188 8.1875 30.925781 8.261719 30.859375 8.34375 C 30.832031 8.375 30.808594 8.40625 30.78125 8.4375 C 30.753906 8.4375 30.730469 8.4375 30.703125 8.4375 C 30.699219 8.460938 30.695312 8.484375 30.695312 8.511719 C 30.664062 8.59375 30.664062 8.59375 30.589844 8.628906 C 30.476562 8.6875 30.472656 8.753906 30.429688 8.867188 C 30.390625 8.878906 30.351562 8.894531 30.3125 8.90625 C 30.304688 8.933594 30.292969 8.960938 30.28125 8.988281 C 30.222656 9.125 30.140625 9.214844 30.035156 9.324219 C 29.929688 9.453125 29.835938 9.589844 29.746094 9.730469 C 29.714844 9.765625 29.714844 9.765625 29.6875 9.804688 C 29.660156 9.804688 29.636719 9.804688 29.609375 9.804688 C 29.601562 9.832031 29.589844 9.859375 29.578125 9.886719 C 29.523438 10.015625 29.453125 10.128906 29.375 10.246094 C 29.347656 10.289062 29.320312 10.328125 29.292969 10.375 C 29.269531 10.40625 29.242188 10.4375 29.21875 10.46875 C 29.191406 10.46875 29.167969 10.46875 29.140625 10.46875 C 29.136719 10.488281 29.132812 10.507812 29.132812 10.53125 C 29.089844 10.660156 29.015625 10.769531 28.941406 10.882812 C 28.910156 10.929688 28.875 10.980469 28.84375 11.027344 C 28.8125 11.074219 28.78125 11.125 28.75 11.171875 C 28.699219 11.25 28.652344 11.324219 28.601562 11.402344 C 28.570312 11.449219 28.570312 11.449219 28.539062 11.496094 C 28.472656 11.605469 28.417969 11.714844 28.363281 11.832031 C 28.320312 11.914062 28.277344 11.996094 28.234375 12.078125 C 27.664062 13.128906 27.203125 14.238281 26.875 15.390625 C 26.867188 15.414062 26.859375 15.4375 26.851562 15.464844 C 26.152344 17.847656 26.113281 20.5625 26.582031 22.992188 C 26.601562 23.078125 26.613281 23.160156 26.628906 23.246094 C 26.988281 25.285156 27.679688 27.386719 28.859375 29.109375 C 28.917969 29.195312 28.96875 29.289062 29.019531 29.382812 C 29.117188 29.542969 29.226562 29.691406 29.335938 29.84375 C 29.351562 29.867188 29.367188 29.886719 29.382812 29.910156 C 29.617188 30.238281 29.859375 30.546875 30.125 30.851562 C 30.21875 30.957031 30.304688 31.066406 30.390625 31.175781 C 30.777344 31.652344 31.234375 32.109375 31.726562 32.476562 C 31.796875 32.539062 31.796875 32.539062 31.835938 32.65625 C 31.902344 32.683594 31.964844 32.707031 32.03125 32.734375 C 32.121094 32.804688 32.121094 32.804688 32.210938 32.886719 C 32.316406 32.988281 32.421875 33.078125 32.539062 33.164062 C 32.480469 33.347656 32.480469 33.347656 32.382812 33.402344 C 32.355469 33.414062 32.332031 33.425781 32.304688 33.4375 C 32.277344 33.488281 32.253906 33.542969 32.226562 33.59375 C 31.851562 34.070312 31.851562 34.070312 31.640625 34.140625 C 31.613281 34.191406 31.589844 34.246094 31.5625 34.296875 C 31.503906 34.359375 31.445312 34.417969 31.382812 34.476562 C 31.261719 34.589844 31.261719 34.589844 31.171875 34.726562 C 30.984375 34.707031 30.890625 34.628906 30.75 34.507812 C 30.730469 34.488281 30.707031 34.472656 30.6875 34.453125 C 30.628906 34.402344 30.566406 34.347656 30.507812 34.296875 C 30.476562 34.269531 30.449219 34.246094 30.417969 34.21875 C 30.363281 34.171875 30.316406 34.128906 30.265625 34.082031 C 30.195312 34.023438 30.128906 33.96875 30.058594 33.914062 C 30.027344 33.886719 29.992188 33.855469 29.960938 33.828125 C 29.960938 33.800781 29.960938 33.777344 29.960938 33.75 C 29.9375 33.742188 29.917969 33.730469 29.894531 33.722656 C 29.78125 33.660156 29.703125 33.578125 29.609375 33.488281 C 29.574219 33.449219 29.535156 33.414062 29.5 33.378906 C 29.480469 33.359375 29.460938 33.339844 29.441406 33.320312 C 29.382812 33.261719 29.328125 33.203125 29.269531 33.144531 C 29.214844 33.089844 29.214844 33.089844 29.160156 33.035156 C 29.125 33.003906 29.089844 32.96875 29.058594 32.933594 C 28.984375 32.851562 28.984375 32.851562 28.984375 32.773438 C 28.960938 32.765625 28.941406 32.753906 28.917969 32.746094 C 28.804688 32.683594 28.746094 32.605469 28.667969 32.503906 C 28.636719 32.464844 28.605469 32.425781 28.574219 32.386719 C 28.550781 32.359375 28.550781 32.359375 28.527344 32.328125 C 28.445312 32.226562 28.363281 32.128906 28.28125 32.035156 C 28.148438 31.871094 28.015625 31.710938 27.886719 31.542969 C 27.859375 31.503906 27.832031 31.46875 27.800781 31.429688 C 27.742188 31.339844 27.710938 31.277344 27.695312 31.171875 C 27.667969 31.171875 27.644531 31.171875 27.617188 31.171875 C 27.558594 31.097656 27.558594 31.097656 27.488281 30.984375 C 27.460938 30.945312 27.433594 30.902344 27.402344 30.855469 C 27.378906 30.820312 27.378906 30.820312 27.355469 30.785156 C 27.300781 30.695312 27.238281 30.605469 27.179688 30.515625 C 26.960938 30.183594 26.753906 29.855469 26.582031 29.496094 C 26.527344 29.382812 26.46875 29.273438 26.410156 29.164062 C 25.707031 27.890625 25.707031 27.890625 25.546875 27.226562 C 25.519531 27.226562 25.496094 27.226562 25.46875 27.226562 C 25.464844 27.265625 25.460938 27.308594 25.457031 27.351562 C 25.425781 27.589844 25.367188 27.824219 25.308594 28.0625 C 25.289062 28.136719 25.289062 28.136719 25.269531 28.214844 C 25.03125 29.179688 24.773438 30.144531 24.4375 31.082031 C 24.421875 31.125 24.410156 31.164062 24.394531 31.207031 C 24.367188 31.285156 24.335938 31.359375 24.308594 31.4375 C 24.242188 31.621094 24.191406 31.757812 24.257812 31.953125 C 24.308594 32.0625 24.308594 32.0625 24.378906 32.171875 C 24.402344 32.210938 24.425781 32.25 24.453125 32.292969 C 24.492188 32.355469 24.492188 32.355469 24.53125 32.421875 C 24.558594 32.464844 24.585938 32.511719 24.613281 32.554688 C 24.773438 32.824219 24.773438 32.824219 24.953125 33.082031 C 25.039062 33.203125 25.039062 33.203125 25.109375 33.328125 C 25.195312 33.484375 25.292969 33.628906 25.394531 33.773438 C 25.414062 33.796875 25.433594 33.824219 25.453125 33.851562 C 25.578125 34.035156 25.707031 34.21875 25.835938 34.402344 C 25.851562 34.425781 25.867188 34.445312 25.886719 34.46875 C 25.976562 34.597656 26.074219 34.722656 26.171875 34.84375 C 26.207031 34.886719 26.242188 34.929688 26.277344 34.976562 C 26.292969 35 26.3125 35.023438 26.332031 35.046875 C 26.367188 35.09375 26.40625 35.140625 26.441406 35.1875 C 26.460938 35.210938 26.480469 35.234375 26.496094 35.257812 C 26.523438 35.292969 26.523438 35.292969 26.550781 35.328125 C 26.597656 35.386719 26.644531 35.441406 26.691406 35.5 C 26.757812 35.585938 26.757812 35.585938 26.757812 35.664062 C 26.785156 35.664062 26.808594 35.664062 26.835938 35.664062 C 26.902344 35.738281 26.902344 35.738281 26.976562 35.835938 C 27.003906 35.867188 27.027344 35.898438 27.050781 35.929688 C 27.109375 36.015625 27.109375 36.015625 27.109375 36.09375 C 27.132812 36.101562 27.160156 36.113281 27.183594 36.125 C 27.285156 36.183594 27.277344 36.21875 27.304688 36.328125 C 27.328125 36.339844 27.347656 36.347656 27.371094 36.359375 C 27.496094 36.425781 27.578125 36.523438 27.667969 36.625 C 27.6875 36.648438 27.707031 36.667969 27.726562 36.6875 C 27.761719 36.730469 27.800781 36.773438 27.835938 36.816406 C 27.882812 36.867188 27.933594 36.921875 27.980469 36.972656 C 28.003906 37 28.03125 37.023438 28.054688 37.054688 C 28.078125 37.078125 28.101562 37.101562 28.125 37.125 C 28.136719 37.144531 28.148438 37.164062 28.164062 37.1875 C 28.152344 37.226562 28.136719 37.265625 28.125 37.304688 C 28.050781 37.34375 28.050781 37.34375 27.945312 37.375 C 27.90625 37.390625 27.867188 37.402344 27.828125 37.414062 C 27.761719 37.4375 27.761719 37.4375 27.695312 37.460938 C 27.59375 37.5 27.488281 37.535156 27.386719 37.574219 C 27.359375 37.585938 27.335938 37.59375 27.308594 37.605469 C 27.140625 37.667969 26.972656 37.734375 26.804688 37.796875 C 26.765625 37.8125 26.722656 37.828125 26.679688 37.84375 C 26.601562 37.875 26.519531 37.90625 26.441406 37.9375 C 26.402344 37.953125 26.363281 37.96875 26.324219 37.984375 C 26.292969 37.996094 26.257812 38.011719 26.222656 38.023438 C 26.121094 38.050781 26.074219 38.046875 25.976562 38.007812 C 25.921875 37.945312 25.871094 37.878906 25.820312 37.8125 C 25.753906 37.746094 25.691406 37.683594 25.625 37.617188 C 25.328125 37.308594 25.0625 36.980469 24.804688 36.640625 C 24.78125 36.609375 24.757812 36.582031 24.734375 36.550781 C 24.6875 36.484375 24.6875 36.484375 24.6875 36.40625 C 24.648438 36.394531 24.609375 36.378906 24.570312 36.367188 C 24.519531 36.3125 24.519531 36.3125 24.472656 36.238281 C 24.453125 36.210938 24.433594 36.183594 24.414062 36.15625 C 24.386719 36.113281 24.386719 36.113281 24.355469 36.070312 C 24.3125 36.007812 24.269531 35.945312 24.230469 35.886719 C 24.207031 35.855469 24.1875 35.824219 24.164062 35.792969 C 24.074219 35.660156 23.976562 35.535156 23.882812 35.40625 C 23.625 35.058594 23.382812 34.707031 23.164062 34.335938 C 22.976562 34.691406 22.789062 35.042969 22.613281 35.402344 C 22.484375 35.664062 22.34375 35.914062 22.199219 36.164062 C 22.136719 36.265625 22.078125 36.371094 22.019531 36.472656 C 21.773438 36.902344 21.519531 37.320312 21.25 37.734375 C 21.21875 37.78125 21.191406 37.828125 21.160156 37.875 C 20.980469 38.160156 20.789062 38.4375 20.585938 38.710938 C 20.542969 38.769531 20.5 38.828125 20.460938 38.886719 C 20.414062 38.945312 20.367188 39.007812 20.320312 39.070312 C 20.289062 39.113281 20.289062 39.113281 20.257812 39.160156 C 20.234375 39.1875 20.214844 39.214844 20.195312 39.246094 C 20.175781 39.269531 20.15625 39.296875 20.136719 39.320312 C 20.078125 39.375 20.078125 39.375 19.921875 39.375 C 19.859375 39.3125 19.859375 39.3125 19.800781 39.21875 C 19.777344 39.183594 19.753906 39.148438 19.730469 39.109375 C 19.6875 39.046875 19.6875 39.046875 19.648438 38.984375 C 19.625 38.949219 19.625 38.949219 19.601562 38.914062 C 19.488281 38.730469 19.371094 38.542969 19.257812 38.359375 C 19.238281 38.324219 19.238281 38.324219 19.214844 38.289062 C 19.148438 38.183594 19.085938 38.078125 19.019531 37.972656 C 18.972656 37.894531 18.921875 37.8125 18.871094 37.734375 C 18.675781 37.417969 18.488281 37.097656 18.304688 36.777344 C 18.222656 36.636719 18.140625 36.5 18.058594 36.359375 C 17.945312 36.164062 17.84375 35.960938 17.742188 35.757812 C 17.636719 35.546875 17.53125 35.339844 17.417969 35.132812 C 17.257812 34.828125 17.105469 34.527344 16.953125 34.21875 C 16.933594 34.25 16.917969 34.28125 16.898438 34.3125 C 16.722656 34.597656 16.539062 34.875 16.339844 35.148438 C 16.28125 35.226562 16.226562 35.308594 16.175781 35.386719 C 16.078125 35.535156 15.972656 35.671875 15.867188 35.8125 C 15.847656 35.839844 15.824219 35.867188 15.804688 35.898438 C 15.675781 36.066406 15.550781 36.230469 15.421875 36.394531 C 15.367188 36.464844 15.3125 36.535156 15.261719 36.605469 C 15.082031 36.839844 14.898438 37.066406 14.695312 37.285156 C 14.601562 37.390625 14.511719 37.5 14.421875 37.609375 C 14.394531 37.644531 14.367188 37.679688 14.335938 37.714844 C 14.289062 37.773438 14.246094 37.832031 14.203125 37.894531 C 14.15625 37.960938 14.15625 37.960938 14.0625 38.046875 C 13.863281 38.054688 13.695312 37.976562 13.515625 37.898438 C 13.375 37.84375 13.234375 37.789062 13.09375 37.738281 C 12.683594 37.585938 12.277344 37.429688 11.875 37.265625 C 11.929688 37.140625 12 37.046875 12.089844 36.945312 C 12.125 36.902344 12.125 36.902344 12.160156 36.859375 C 12.226562 36.796875 12.226562 36.796875 12.304688 36.796875 C 12.3125 36.777344 12.320312 36.757812 12.328125 36.734375 C 12.40625 36.597656 12.511719 36.496094 12.621094 36.382812 C 12.875 36.113281 13.136719 35.835938 13.335938 35.519531 C 13.359375 35.488281 13.378906 35.460938 13.398438 35.429688 C 13.425781 35.429688 13.449219 35.429688 13.476562 35.429688 C 13.484375 35.410156 13.496094 35.386719 13.503906 35.367188 C 13.570312 35.246094 13.652344 35.144531 13.734375 35.035156 C 13.914062 34.804688 14.089844 34.574219 14.257812 34.335938 C 14.28125 34.304688 14.28125 34.304688 14.304688 34.269531 C 14.40625 34.132812 14.503906 33.992188 14.601562 33.851562 C 14.644531 33.792969 14.6875 33.734375 14.730469 33.675781 C 14.839844 33.519531 14.945312 33.367188 15.035156 33.199219 C 15.15625 32.988281 15.292969 32.785156 15.425781 32.582031 C 15.542969 32.402344 15.648438 32.222656 15.742188 32.03125 C 15.765625 32 15.789062 31.96875 15.8125 31.9375 C 15.890625 31.769531 15.839844 31.621094 15.785156 31.453125 C 15.738281 31.320312 15.6875 31.191406 15.636719 31.0625 C 15.519531 30.75 15.402344 30.4375 15.296875 30.121094 C 15.289062 30.097656 15.28125 30.070312 15.273438 30.046875 C 14.957031 29.078125 14.691406 28.097656 14.453125 27.109375 C 14.441406 27.140625 14.429688 27.175781 14.417969 27.207031 C 13.945312 28.535156 13.257812 29.855469 12.421875 30.988281 C 12.351562 31.085938 12.28125 31.183594 12.214844 31.28125 C 11.9375 31.679688 11.625 32.054688 11.308594 32.425781 C 11.257812 32.484375 11.207031 32.542969 11.15625 32.605469 C 11.113281 32.664062 11.0625 32.71875 11.015625 32.773438 C 10.988281 32.773438 10.964844 32.773438 10.9375 32.773438 C 10.925781 32.796875 10.917969 32.820312 10.90625 32.84375 C 10.792969 33.058594 10.601562 33.230469 10.429688 33.398438 C 10.398438 33.433594 10.367188 33.46875 10.332031 33.503906 C 10.234375 33.59375 10.234375 33.59375 10.128906 33.636719 C 10.015625 33.679688 10.011719 33.722656 9.960938 33.828125 C 9.910156 33.855469 9.855469 33.878906 9.804688 33.90625 C 9.796875 33.929688 9.785156 33.949219 9.777344 33.972656 C 9.703125 34.105469 9.585938 34.183594 9.464844 34.273438 C 9.414062 34.308594 9.367188 34.347656 9.316406 34.386719 C 9.28125 34.414062 9.28125 34.414062 9.246094 34.441406 C 9.164062 34.503906 9.09375 34.570312 9.019531 34.640625 C 8.90625 34.726562 8.90625 34.726562 8.832031 34.722656 C 8.71875 34.671875 8.648438 34.597656 8.5625 34.507812 C 8.527344 34.472656 8.492188 34.4375 8.457031 34.402344 C 8.355469 34.292969 8.253906 34.179688 8.15625 34.066406 C 8.074219 33.96875 7.980469 33.878906 7.890625 33.789062 C 7.769531 33.667969 7.648438 33.546875 7.535156 33.421875 C 7.5 33.386719 7.5 33.386719 7.46875 33.351562 C 7.421875 33.28125 7.421875 33.28125 7.421875 33.125 C 7.503906 33.046875 7.585938 32.984375 7.675781 32.917969 C 7.726562 32.878906 7.777344 32.839844 7.828125 32.804688 C 7.863281 32.777344 7.863281 32.777344 7.902344 32.746094 C 8.015625 32.660156 8.121094 32.5625 8.222656 32.464844 C 8.28125 32.421875 8.28125 32.421875 8.359375 32.421875 C 8.367188 32.398438 8.378906 32.375 8.390625 32.351562 C 8.445312 32.253906 8.507812 32.195312 8.59375 32.117188 C 8.621094 32.09375 8.648438 32.070312 8.675781 32.046875 C 8.75 31.992188 8.75 31.992188 8.828125 31.992188 C 8.839844 31.960938 8.839844 31.960938 8.855469 31.925781 C 8.933594 31.785156 9.039062 31.667969 9.1875 31.601562 C 9.289062 31.546875 9.292969 31.472656 9.335938 31.367188 C 9.398438 31.300781 9.464844 31.234375 9.53125 31.171875 C 9.816406 30.875 10.066406 30.5625 10.3125 30.234375 C 10.339844 30.199219 10.367188 30.160156 10.394531 30.125 C 10.585938 29.867188 10.761719 29.601562 10.9375 29.335938 C 10.953125 29.3125 10.96875 29.289062 10.980469 29.269531 C 11.273438 28.824219 11.523438 28.367188 11.757812 27.890625 C 11.792969 27.816406 11.832031 27.742188 11.871094 27.667969 C 12.367188 26.691406 12.78125 25.625 13.023438 24.554688 C 13.039062 24.480469 13.058594 24.40625 13.074219 24.332031 C 13.371094 23.113281 13.589844 21.84375 13.59375 20.585938 C 13.59375 20.519531 13.59375 20.453125 13.59375 20.386719 C 13.597656 20.152344 13.597656 19.917969 13.597656 19.683594 C 13.597656 19.625 13.597656 19.625 13.597656 19.566406 C 13.601562 18.78125 13.578125 18.011719 13.449219 17.234375 C 13.445312 17.203125 13.4375 17.171875 13.433594 17.140625 C 13.21875 15.816406 12.839844 14.550781 12.304688 13.320312 C 12.292969 13.289062 12.277344 13.261719 12.265625 13.230469 C 12.179688 13.039062 12.089844 12.847656 11.996094 12.660156 C 11.96875 12.605469 11.9375 12.550781 11.910156 12.492188 C 11.898438 12.46875 11.886719 12.441406 11.871094 12.414062 C 11.828125 12.328125 11.785156 12.238281 11.742188 12.148438 C 11.652344 11.972656 11.558594 11.804688 11.464844 11.632812 C 11.449219 11.605469 11.4375 11.582031 11.421875 11.554688 C 11.324219 11.378906 11.210938 11.21875 11.09375 11.054688 C 11.066406 11.007812 11.039062 10.960938 11.011719 10.914062 C 10.960938 10.824219 10.910156 10.738281 10.851562 10.652344 C 10.78125 10.546875 10.78125 10.546875 10.78125 10.46875 C 10.753906 10.46875 10.730469 10.46875 10.703125 10.46875 C 10.640625 10.378906 10.640625 10.378906 10.570312 10.265625 C 10.472656 10.105469 10.472656 10.105469 10.363281 9.953125 C 10.3125 9.882812 10.3125 9.882812 10.3125 9.804688 C 10.285156 9.804688 10.261719 9.804688 10.234375 9.804688 C 10.179688 9.726562 10.128906 9.648438 10.078125 9.570312 C 10.042969 9.527344 10.042969 9.527344 10.007812 9.484375 C 9.960938 9.414062 9.960938 9.414062 9.960938 9.335938 C 9.921875 9.324219 9.882812 9.308594 9.84375 9.296875 C 9.777344 9.222656 9.777344 9.222656 9.710938 9.132812 C 9.6875 9.097656 9.660156 9.066406 9.636719 9.035156 C 9.617188 9.003906 9.59375 8.976562 9.570312 8.945312 C 9.539062 8.90625 9.507812 8.871094 9.476562 8.832031 C 9.414062 8.75 9.414062 8.75 9.414062 8.671875 C 9.375 8.660156 9.335938 8.644531 9.296875 8.632812 C 9.285156 8.601562 9.273438 8.570312 9.261719 8.539062 C 9.210938 8.414062 9.175781 8.417969 9.0625 8.359375 C 8.996094 8.292969 8.996094 8.292969 8.9375 8.222656 C 8.914062 8.199219 8.894531 8.175781 8.875 8.152344 C 8.828125 8.085938 8.828125 8.085938 8.828125 8.007812 C 8.804688 8 8.785156 7.988281 8.761719 7.980469 C 8.539062 7.855469 8.378906 7.625 8.214844 7.4375 C 8.125 7.34375 8.03125 7.265625 7.929688 7.1875 C 7.863281 7.125 7.796875 7.058594 7.734375 6.992188 C 7.699219 6.957031 7.667969 6.925781 7.632812 6.890625 C 7.601562 6.859375 7.570312 6.828125 7.539062 6.796875 C 7.515625 6.777344 7.492188 6.757812 7.464844 6.734375 C 7.421875 6.679688 7.421875 6.679688 7.429688 6.605469 C 7.46875 6.503906 7.519531 6.453125 7.601562 6.375 C 7.714844 6.269531 7.816406 6.164062 7.917969 6.046875 C 8.203125 5.714844 8.203125 5.714844 8.359375 5.664062 C 8.386719 5.613281 8.414062 5.5625 8.4375 5.507812 C 8.480469 5.453125 8.523438 5.398438 8.566406 5.347656 C 8.589844 5.320312 8.613281 5.292969 8.636719 5.265625 C 8.71875 5.1875 8.796875 5.152344 8.90625 5.117188 C 8.972656 5.171875 9.042969 5.226562 9.109375 5.28125 C 9.148438 5.3125 9.183594 5.339844 9.222656 5.371094 C 9.363281 5.492188 9.492188 5.613281 9.601562 5.757812 C 9.675781 5.84375 9.746094 5.910156 9.835938 5.984375 C 9.992188 6.117188 10.113281 6.269531 10.242188 6.433594 C 10.324219 6.539062 10.414062 6.628906 10.507812 6.71875 C 10.566406 6.785156 10.621094 6.851562 10.679688 6.921875 C 10.726562 6.976562 10.78125 7.03125 10.832031 7.082031 C 10.949219 7.199219 11.058594 7.324219 11.167969 7.453125 C 11.199219 7.488281 11.199219 7.488281 11.230469 7.527344 C 11.355469 7.671875 11.472656 7.820312 11.585938 7.972656 C 11.652344 8.0625 11.722656 8.148438 11.792969 8.234375 C 12.015625 8.515625 12.222656 8.804688 12.421875 9.101562 C 12.480469 9.183594 12.539062 9.269531 12.597656 9.351562 C 12.71875 9.527344 12.828125 9.699219 12.929688 9.882812 C 12.972656 9.953125 13.019531 10.023438 13.0625 10.09375 C 13.164062 10.25 13.257812 10.410156 13.347656 10.574219 C 13.382812 10.636719 13.417969 10.699219 13.457031 10.757812 C 13.859375 11.417969 14.15625 12.140625 14.453125 12.851562 C 14.464844 12.804688 14.476562 12.757812 14.488281 12.707031 C 14.601562 12.246094 14.71875 11.789062 14.84375 11.332031 C 14.851562 11.300781 14.863281 11.265625 14.871094 11.234375 C 15.011719 10.722656 15.167969 10.21875 15.34375 9.71875 C 15.351562 9.6875 15.363281 9.65625 15.375 9.621094 C 15.472656 9.335938 15.570312 9.054688 15.691406 8.777344 C 15.84375 8.441406 15.84375 8.441406 15.820312 8.085938 C 15.761719 7.957031 15.683594 7.84375 15.597656 7.730469 C 15.527344 7.628906 15.464844 7.523438 15.398438 7.414062 C 15.335938 7.308594 15.269531 7.207031 15.199219 7.101562 C 15.160156 7.039062 15.121094 6.976562 15.082031 6.914062 C 14.9375 6.683594 14.789062 6.460938 14.636719 6.238281 C 14.574219 6.140625 14.53125 6.046875 14.492188 5.9375 C 14.464844 5.9375 14.441406 5.9375 14.414062 5.9375 C 14.355469 5.859375 14.300781 5.785156 14.25 5.703125 C 14.214844 5.65625 14.183594 5.609375 14.152344 5.5625 C 14.136719 5.539062 14.121094 5.515625 14.105469 5.492188 C 14.03125 5.382812 13.949219 5.28125 13.867188 5.175781 C 13.828125 5.117188 13.828125 5.117188 13.828125 5.039062 C 13.789062 5.027344 13.75 5.011719 13.710938 5 C 13.65625 4.933594 13.601562 4.863281 13.550781 4.789062 C 13.519531 4.746094 13.488281 4.703125 13.457031 4.660156 C 13.441406 4.640625 13.421875 4.617188 13.40625 4.59375 C 13.203125 4.324219 12.980469 4.066406 12.75 3.820312 C 12.695312 3.75 12.695312 3.75 12.695312 3.671875 C 12.671875 3.664062 12.652344 3.65625 12.628906 3.644531 C 12.511719 3.578125 12.453125 3.496094 12.375 3.394531 C 12.234375 3.21875 12.09375 3.066406 11.925781 2.921875 C 11.875 2.851562 11.875 2.851562 11.882812 2.773438 C 11.914062 2.695312 11.914062 2.695312 11.980469 2.652344 C 12.007812 2.640625 12.039062 2.628906 12.066406 2.617188 C 12.101562 2.605469 12.132812 2.589844 12.164062 2.578125 C 12.199219 2.5625 12.238281 2.546875 12.273438 2.535156 C 12.347656 2.503906 12.421875 2.472656 12.496094 2.441406 C 12.554688 2.417969 12.554688 2.417969 12.613281 2.394531 C 12.8125 2.3125 13.007812 2.222656 13.203125 2.132812 C 13.238281 2.117188 13.273438 2.101562 13.3125 2.085938 C 13.449219 2.023438 13.578125 1.960938 13.707031 1.878906 C 13.789062 1.835938 13.789062 1.835938 13.871094 1.839844 C 13.972656 1.886719 14.027344 1.953125 14.101562 2.039062 C 14.148438 2.09375 14.148438 2.09375 14.195312 2.144531 C 14.210938 2.164062 14.226562 2.183594 14.246094 2.203125 C 14.296875 2.265625 14.351562 2.328125 14.40625 2.390625 C 14.621094 2.636719 14.828125 2.886719 15.035156 3.140625 C 15.054688 3.164062 15.074219 3.191406 15.097656 3.214844 C 15.199219 3.34375 15.304688 3.476562 15.40625 3.609375 C 15.425781 3.632812 15.445312 3.660156 15.464844 3.683594 C 15.507812 3.75 15.507812 3.75 15.507812 3.828125 C 15.535156 3.828125 15.558594 3.828125 15.585938 3.828125 C 15.636719 3.886719 15.636719 3.886719 15.695312 3.96875 C 15.714844 3.996094 15.734375 4.027344 15.757812 4.054688 C 15.78125 4.089844 15.800781 4.121094 15.824219 4.152344 C 15.871094 4.21875 15.917969 4.28125 15.964844 4.347656 C 15.984375 4.378906 16.007812 4.410156 16.03125 4.445312 C 16.105469 4.550781 16.183594 4.65625 16.261719 4.761719 C 16.492188 5.078125 16.707031 5.40625 16.914062 5.742188 C 17.019531 5.613281 17.09375 5.46875 17.164062 5.320312 C 17.632812 4.371094 18.140625 3.441406 18.699219 2.542969 C 18.75 2.460938 18.800781 2.375 18.855469 2.292969 C 19.011719 2.039062 19.167969 1.789062 19.339844 1.546875 C 19.453125 1.390625 19.558594 1.230469 19.664062 1.070312 C 19.773438 0.90625 19.882812 0.746094 20 0.585938 Z M 19.960938 4.648438 C 19.847656 4.808594 19.757812 4.96875 19.671875 5.144531 C 19.589844 5.3125 19.507812 5.476562 19.417969 5.640625 C 19.277344 5.894531 19.148438 6.152344 19.019531 6.410156 C 18.96875 6.515625 18.917969 6.617188 18.863281 6.722656 C 18.480469 7.417969 18.480469 7.417969 18.242188 8.164062 C 18.277344 8.230469 18.3125 8.292969 18.351562 8.355469 C 18.417969 8.472656 18.464844 8.597656 18.511719 8.722656 C 18.546875 8.808594 18.582031 8.886719 18.625 8.96875 C 18.726562 9.167969 18.8125 9.375 18.898438 9.578125 C 18.925781 9.640625 18.925781 9.640625 18.949219 9.703125 C 19.097656 10.058594 19.222656 10.414062 19.347656 10.773438 C 19.386719 10.898438 19.433594 11.023438 19.476562 11.144531 C 19.628906 11.574219 19.773438 12.003906 19.894531 12.441406 C 19.929688 12.566406 19.964844 12.664062 20.039062 12.773438 C 20.0625 12.707031 20.085938 12.636719 20.109375 12.570312 C 20.121094 12.53125 20.132812 12.496094 20.144531 12.457031 C 20.1875 12.328125 20.226562 12.203125 20.265625 12.074219 C 20.359375 11.769531 20.457031 11.464844 20.558594 11.164062 C 20.570312 11.136719 20.578125 11.109375 20.585938 11.078125 C 20.777344 10.511719 20.976562 9.957031 21.234375 9.414062 C 21.304688 9.261719 21.371094 9.109375 21.429688 8.953125 C 21.472656 8.855469 21.515625 8.777344 21.570312 8.6875 C 21.679688 8.503906 21.78125 8.328125 21.742188 8.109375 C 21.671875 7.890625 21.566406 7.6875 21.460938 7.488281 C 21.390625 7.355469 21.332031 7.21875 21.269531 7.078125 C 21.121094 6.730469 20.953125 6.390625 20.78125 6.054688 C 20.742188 5.972656 20.699219 5.894531 20.660156 5.8125 C 20.371094 5.207031 20.371094 5.207031 20 4.648438 C 19.988281 4.648438 19.972656 4.648438 19.960938 4.648438 Z M 17.148438 11.09375 C 16.957031 11.71875 16.78125 12.34375 16.628906 12.976562 C 16.601562 13.078125 16.578125 13.183594 16.550781 13.285156 C 16.15625 14.871094 15.925781 16.496094 15.820312 18.125 C 15.816406 18.164062 15.816406 18.164062 15.816406 18.207031 C 15.773438 18.8125 15.773438 19.421875 15.773438 20.03125 C 15.773438 20.054688 15.773438 20.082031 15.773438 20.109375 C 15.773438 20.894531 15.785156 21.675781 15.859375 22.460938 C 15.867188 22.554688 15.875 22.648438 15.882812 22.738281 C 16.050781 24.667969 16.445312 26.566406 17.003906 28.417969 C 17.042969 28.5625 17.085938 28.703125 17.125 28.847656 C 17.136719 28.890625 17.152344 28.933594 17.164062 28.976562 C 17.171875 29.003906 17.179688 29.03125 17.1875 29.0625 C 17.289062 28.941406 17.34375 28.820312 17.398438 28.671875 C 17.460938 28.5 17.527344 28.332031 17.601562 28.164062 C 17.683594 27.964844 17.75 27.765625 17.8125 27.558594 C 17.847656 27.4375 17.882812 27.320312 17.921875 27.203125 C 18.042969 26.824219 18.144531 26.441406 18.242188 26.054688 C 18.253906 26.003906 18.269531 25.949219 18.28125 25.898438 C 18.316406 25.769531 18.347656 25.640625 18.378906 25.515625 C 18.390625 25.457031 18.40625 25.398438 18.421875 25.339844 C 18.660156 24.386719 18.796875 23.402344 18.867188 22.421875 C 18.871094 22.378906 18.875 22.332031 18.878906 22.289062 C 19.140625 18.898438 18.675781 15.453125 17.617188 12.226562 C 17.605469 12.191406 17.59375 12.15625 17.582031 12.121094 C 17.546875 12.007812 17.507812 11.898438 17.472656 11.789062 C 17.460938 11.757812 17.449219 11.722656 17.4375 11.6875 C 17.371094 11.488281 17.300781 11.289062 17.226562 11.09375 C 17.199219 11.09375 17.175781 11.09375 17.148438 11.09375 Z M 22.773438 11.210938 C 22.738281 11.304688 22.703125 11.398438 22.664062 11.492188 C 22.652344 11.53125 22.652344 11.53125 22.636719 11.570312 C 22.554688 11.78125 22.488281 11.996094 22.421875 12.210938 C 22.382812 12.339844 22.34375 12.464844 22.304688 12.59375 C 22.167969 13.035156 22.035156 13.472656 21.9375 13.925781 C 21.910156 14.042969 21.882812 14.160156 21.851562 14.277344 C 21.269531 16.679688 21.019531 19.140625 21.125 21.609375 C 21.132812 21.734375 21.136719 21.859375 21.140625 21.980469 C 21.15625 22.5625 21.246094 23.136719 21.328125 23.710938 C 21.335938 23.753906 21.339844 23.796875 21.347656 23.839844 C 21.59375 25.578125 22.011719 27.453125 22.8125 29.023438 C 22.929688 28.777344 22.996094 28.523438 23.0625 28.257812 C 23.089844 28.167969 23.113281 28.074219 23.136719 27.984375 C 23.148438 27.941406 23.160156 27.894531 23.171875 27.851562 C 23.207031 27.71875 23.246094 27.589844 23.285156 27.460938 C 24.214844 24.222656 24.445312 20.617188 23.039062 11.902344 C 23.011719 11.808594 22.984375 11.710938 22.957031 11.613281 C 22.945312 11.5625 22.929688 11.511719 22.917969 11.460938 C 22.90625 11.421875 22.894531 11.378906 22.882812 11.335938 C 22.859375 11.242188 22.859375 11.242188 22.773438 11.210938 Z M 20 27.617188 C 19.984375 27.664062 19.984375 27.664062 19.96875 27.710938 C 19.585938 28.824219 19.585938 28.824219 19.40625 29.296875 C 19.371094 29.386719 19.335938 29.480469 19.300781 29.574219 C 19.132812 30.03125 18.945312 30.46875 18.726562 30.90625 C 18.667969 31.023438 18.609375 31.140625 18.550781 31.261719 C 18.515625 31.332031 18.480469 31.402344 18.445312 31.472656 C 18.421875 31.515625 18.402344 31.5625 18.378906 31.605469 C 18.359375 31.644531 18.339844 31.6875 18.320312 31.726562 C 18.246094 31.941406 18.351562 32.117188 18.441406 32.3125 C 18.453125 32.339844 18.464844 32.367188 18.476562 32.394531 C 18.503906 32.453125 18.527344 32.507812 18.554688 32.566406 C 18.59375 32.65625 18.632812 32.742188 18.671875 32.832031 C 19.046875 33.695312 19.488281 34.535156 19.960938 35.351562 C 20.125 35.296875 20.164062 35.179688 20.242188 35.035156 C 20.257812 35.007812 20.273438 34.980469 20.289062 34.949219 C 20.550781 34.472656 20.78125 33.980469 21.015625 33.492188 C 21.113281 33.285156 21.210938 33.082031 21.316406 32.878906 C 21.359375 32.792969 21.402344 32.703125 21.445312 32.617188 C 21.464844 32.574219 21.464844 32.574219 21.488281 32.53125 C 21.535156 32.4375 21.578125 32.34375 21.625 32.25 C 21.644531 32.203125 21.644531 32.203125 21.667969 32.160156 C 21.679688 32.132812 21.695312 32.105469 21.707031 32.074219 C 21.71875 32.050781 21.730469 32.027344 21.742188 32 C 21.78125 31.773438 21.644531 31.5625 21.535156 31.371094 C 21.367188 31.066406 21.230469 30.75 21.097656 30.429688 C 21.074219 30.375 21.046875 30.316406 21.023438 30.261719 C 20.785156 29.683594 20.542969 29.109375 20.351562 28.515625 C 20.304688 28.375 20.257812 28.230469 20.210938 28.089844 C 20.199219 28.050781 20.1875 28.015625 20.175781 27.976562 C 20.164062 27.941406 20.152344 27.90625 20.140625 27.871094 C 20.132812 27.839844 20.121094 27.804688 20.109375 27.773438 C 20.082031 27.6875 20.082031 27.6875 20 27.617188 Z M 20 27.617188 "/>
<path style=" stroke:none;fill-rule:nonzero;fill:rgb(94.901961%,46.27451%,21.176471%);fill-opacity:1;" d="M 26.132812 1.835938 C 26.296875 1.859375 26.429688 1.917969 26.578125 1.988281 C 26.613281 2.007812 26.613281 2.007812 26.648438 2.023438 C 26.722656 2.0625 26.800781 2.097656 26.875 2.136719 C 26.972656 2.183594 27.070312 2.234375 27.171875 2.28125 C 27.207031 2.296875 27.207031 2.296875 27.242188 2.316406 C 27.546875 2.464844 27.851562 2.613281 28.164062 2.734375 C 28.164062 2.886719 28.113281 2.921875 28.011719 3.035156 C 27.984375 3.066406 27.957031 3.097656 27.925781 3.128906 C 27.851562 3.203125 27.851562 3.203125 27.773438 3.203125 C 27.761719 3.226562 27.753906 3.246094 27.742188 3.269531 C 27.691406 3.367188 27.628906 3.441406 27.558594 3.523438 C 27.535156 3.554688 27.511719 3.582031 27.488281 3.609375 C 27.421875 3.671875 27.421875 3.671875 27.34375 3.671875 C 27.332031 3.703125 27.324219 3.734375 27.3125 3.765625 C 27.296875 3.800781 27.28125 3.832031 27.265625 3.867188 C 27.226562 3.878906 27.1875 3.894531 27.148438 3.90625 C 27.136719 3.933594 27.125 3.964844 27.113281 3.992188 C 27.058594 4.128906 26.976562 4.195312 26.875 4.296875 C 26.785156 4.40625 26.703125 4.519531 26.621094 4.632812 C 26.578125 4.691406 26.53125 4.75 26.484375 4.804688 C 26.457031 4.804688 26.433594 4.804688 26.40625 4.804688 C 26.398438 4.832031 26.386719 4.859375 26.378906 4.890625 C 26.320312 5.015625 26.253906 5.097656 26.164062 5.203125 C 26.027344 5.367188 25.898438 5.535156 25.777344 5.714844 C 25.707031 5.816406 25.636719 5.914062 25.566406 6.011719 C 25.386719 6.257812 25.21875 6.507812 25.0625 6.765625 C 24.980469 6.898438 24.894531 7.03125 24.808594 7.160156 C 24.675781 7.355469 24.558594 7.558594 24.445312 7.765625 C 24.421875 7.800781 24.402344 7.835938 24.378906 7.871094 C 24.359375 7.90625 24.339844 7.941406 24.320312 7.976562 C 24.292969 8.023438 24.292969 8.023438 24.265625 8.070312 C 24.160156 8.261719 24.160156 8.261719 24.171875 8.472656 C 24.1875 8.511719 24.207031 8.550781 24.222656 8.59375 C 24.292969 8.757812 24.355469 8.921875 24.40625 9.09375 C 24.46875 9.296875 24.53125 9.496094 24.601562 9.695312 C 24.742188 10.109375 24.867188 10.523438 24.984375 10.945312 C 25.042969 11.167969 25.109375 11.390625 25.179688 11.609375 C 25.296875 11.980469 25.382812 12.355469 25.46875 12.734375 C 25.550781 12.632812 25.609375 12.535156 25.664062 12.414062 C 25.675781 12.382812 25.691406 12.351562 25.707031 12.316406 C 25.71875 12.285156 25.734375 12.25 25.75 12.21875 C 25.964844 11.734375 26.1875 11.265625 26.460938 10.8125 C 26.523438 10.707031 26.582031 10.597656 26.636719 10.492188 C 26.863281 10.078125 27.121094 9.6875 27.382812 9.296875 C 27.410156 9.257812 27.433594 9.21875 27.460938 9.179688 C 27.636719 8.914062 27.832031 8.660156 28.023438 8.40625 C 28.070312 8.339844 28.121094 8.273438 28.167969 8.210938 C 28.3125 8.015625 28.460938 7.820312 28.609375 7.625 C 28.636719 7.59375 28.660156 7.5625 28.6875 7.53125 C 28.707031 7.507812 28.726562 7.484375 28.75 7.460938 C 28.777344 7.460938 28.800781 7.460938 28.828125 7.460938 C 28.839844 7.429688 28.847656 7.398438 28.859375 7.367188 C 28.875 7.332031 28.890625 7.300781 28.90625 7.265625 C 28.945312 7.253906 28.984375 7.238281 29.023438 7.226562 C 29.035156 7.199219 29.046875 7.167969 29.058594 7.140625 C 29.113281 7.003906 29.191406 6.9375 29.296875 6.835938 C 29.335938 6.792969 29.375 6.753906 29.414062 6.710938 C 29.703125 6.398438 30 6.089844 30.300781 5.785156 C 30.34375 5.742188 30.382812 5.703125 30.425781 5.660156 C 30.480469 5.601562 30.539062 5.542969 30.597656 5.488281 C 30.632812 5.453125 30.664062 5.417969 30.699219 5.386719 C 30.78125 5.3125 30.78125 5.3125 30.859375 5.3125 C 30.871094 5.273438 30.886719 5.234375 30.898438 5.195312 C 31.015625 5.117188 31.015625 5.117188 31.09375 5.125 C 31.1875 5.164062 31.234375 5.210938 31.304688 5.285156 C 31.328125 5.3125 31.351562 5.339844 31.378906 5.367188 C 31.402344 5.394531 31.429688 5.421875 31.453125 5.453125 C 31.507812 5.507812 31.558594 5.566406 31.613281 5.625 C 31.636719 5.652344 31.664062 5.679688 31.6875 5.707031 C 31.769531 5.796875 31.855469 5.878906 31.941406 5.964844 C 32.046875 6.066406 32.136719 6.175781 32.226562 6.289062 C 32.328125 6.394531 32.417969 6.480469 32.539062 6.5625 C 32.539062 6.679688 32.539062 6.679688 32.480469 6.738281 C 32.457031 6.761719 32.429688 6.78125 32.402344 6.804688 C 32.285156 6.902344 32.175781 7.003906 32.066406 7.113281 C 31.972656 7.207031 31.878906 7.296875 31.773438 7.382812 C 31.652344 7.488281 31.546875 7.601562 31.445312 7.726562 C 31.324219 7.859375 31.195312 7.984375 31.066406 8.113281 C 30.992188 8.1875 30.925781 8.261719 30.859375 8.34375 C 30.832031 8.375 30.808594 8.40625 30.78125 8.4375 C 30.753906 8.4375 30.730469 8.4375 30.703125 8.4375 C 30.699219 8.460938 30.695312 8.484375 30.695312 8.511719 C 30.664062 8.59375 30.664062 8.59375 30.589844 8.628906 C 30.476562 8.6875 30.472656 8.753906 30.429688 8.867188 C 30.390625 8.878906 30.351562 8.894531 30.3125 8.90625 C 30.304688 8.933594 30.292969 8.960938 30.28125 8.988281 C 30.222656 9.125 30.140625 9.214844 30.035156 9.324219 C 29.929688 9.453125 29.835938 9.589844 29.746094 9.730469 C 29.726562 9.753906 29.707031 9.78125 29.6875 9.804688 C 29.660156 9.804688 29.636719 9.804688 29.609375 9.804688 C 29.601562 9.832031 29.589844 9.859375 29.578125 9.886719 C 29.523438 10.015625 29.453125 10.128906 29.375 10.246094 C 29.347656 10.289062 29.320312 10.328125 29.292969 10.375 C 29.269531 10.40625 29.242188 10.4375 29.21875 10.46875 C 29.191406 10.46875 29.167969 10.46875 29.140625 10.46875 C 29.136719 10.488281 29.132812 10.507812 29.132812 10.53125 C 29.089844 10.660156 29.015625 10.769531 28.941406 10.882812 C 28.910156 10.929688 28.875 10.980469 28.84375 11.027344 C 28.8125 11.074219 28.78125 11.125 28.75 11.171875 C 28.699219 11.25 28.652344 11.324219 28.601562 11.402344 C 28.570312 11.449219 28.570312 11.449219 28.539062 11.496094 C 28.472656 11.605469 28.417969 11.714844 28.363281 11.832031 C 28.320312 11.914062 28.277344 11.996094 28.234375 12.078125 C 27.664062 13.128906 27.203125 14.238281 26.875 15.390625 C 26.867188 15.414062 26.859375 15.4375 26.851562 15.464844 C 26.152344 17.847656 26.113281 20.5625 26.582031 22.992188 C 26.601562 23.078125 26.613281 23.160156 26.628906 23.246094 C 26.988281 25.285156 27.679688 27.386719 28.859375 29.109375 C 28.917969 29.195312 28.96875 29.289062 29.019531 29.382812 C 29.117188 29.542969 29.226562 29.691406 29.335938 29.84375 C 29.359375 29.875 29.359375 29.875 29.382812 29.910156 C 29.617188 30.238281 29.859375 30.546875 30.125 30.851562 C 30.21875 30.957031 30.304688 31.066406 30.390625 31.175781 C 30.777344 31.652344 31.234375 32.109375 31.726562 32.476562 C 31.796875 32.539062 31.796875 32.539062 31.835938 32.65625 C 31.902344 32.683594 31.964844 32.707031 32.03125 32.734375 C 32.121094 32.804688 32.121094 32.804688 32.210938 32.886719 C 32.316406 32.988281 32.421875 33.078125 32.539062 33.164062 C 32.480469 33.347656 32.480469 33.347656 32.382812 33.402344 C 32.355469 33.414062 32.332031 33.425781 32.304688 33.4375 C 32.277344 33.488281 32.253906 33.542969 32.226562 33.59375 C 31.851562 34.070312 31.851562 34.070312 31.640625 34.140625 C 31.613281 34.191406 31.589844 34.246094 31.5625 34.296875 C 31.503906 34.359375 31.445312 34.417969 31.382812 34.476562 C 31.261719 34.589844 31.261719 34.589844 31.171875 34.726562 C 30.984375 34.707031 30.890625 34.628906 30.75 34.507812 C 30.730469 34.488281 30.707031 34.472656 30.6875 34.453125 C 30.628906 34.402344 30.566406 34.347656 30.507812 34.296875 C 30.476562 34.269531 30.449219 34.246094 30.417969 34.21875 C 30.363281 34.171875 30.316406 34.128906 30.265625 34.082031 C 30.195312 34.023438 30.128906 33.96875 30.058594 33.914062 C 30.027344 33.886719 29.992188 33.855469 29.960938 33.828125 C 29.960938 33.800781 29.960938 33.777344 29.960938 33.75 C 29.929688 33.738281 29.929688 33.738281 29.894531 33.722656 C 29.78125 33.660156 29.703125 33.578125 29.609375 33.488281 C 29.574219 33.449219 29.535156 33.414062 29.5 33.378906 C 29.480469 33.359375 29.460938 33.339844 29.441406 33.320312 C 29.382812 33.261719 29.328125 33.203125 29.269531 33.144531 C 29.230469 33.109375 29.195312 33.074219 29.160156 33.035156 C 29.125 33.003906 29.089844 32.96875 29.058594 32.933594 C 28.984375 32.851562 28.984375 32.851562 28.984375 32.773438 C 28.960938 32.765625 28.941406 32.753906 28.917969 32.746094 C 28.804688 32.683594 28.746094 32.605469 28.667969 32.503906 C 28.636719 32.464844 28.605469 32.425781 28.574219 32.386719 C 28.558594 32.367188 28.542969 32.347656 28.527344 32.328125 C 28.445312 32.226562 28.363281 32.128906 28.28125 32.035156 C 28.148438 31.871094 28.015625 31.710938 27.886719 31.542969 C 27.859375 31.503906 27.832031 31.46875 27.800781 31.429688 C 27.742188 31.339844 27.710938 31.277344 27.695312 31.171875 C 27.667969 31.171875 27.644531 31.171875 27.617188 31.171875 C 27.558594 31.097656 27.558594 31.097656 27.488281 30.984375 C 27.445312 30.921875 27.445312 30.921875 27.402344 30.855469 C 27.386719 30.832031 27.371094 30.808594 27.355469 30.785156 C 27.300781 30.695312 27.238281 30.605469 27.179688 30.515625 C 26.960938 30.183594 26.753906 29.855469 26.582031 29.496094 C 26.527344 29.382812 26.46875 29.273438 26.410156 29.164062 C 25.707031 27.890625 25.707031 27.890625 25.546875 27.226562 C 25.519531 27.226562 25.496094 27.226562 25.46875 27.226562 C 25.464844 27.265625 25.460938 27.308594 25.457031 27.351562 C 25.425781 27.589844 25.367188 27.824219 25.308594 28.0625 C 25.296875 28.113281 25.28125 28.160156 25.269531 28.214844 C 25.03125 29.179688 24.773438 30.144531 24.4375 31.082031 C 24.421875 31.125 24.410156 31.164062 24.394531 31.207031 C 24.367188 31.285156 24.335938 31.359375 24.308594 31.4375 C 24.242188 31.621094 24.191406 31.757812 24.257812 31.953125 C 24.308594 32.0625 24.308594 32.0625 24.378906 32.171875 C 24.414062 32.230469 24.414062 32.230469 24.453125 32.292969 C 24.476562 32.335938 24.503906 32.378906 24.53125 32.421875 C 24.558594 32.464844 24.585938 32.511719 24.613281 32.554688 C 24.773438 32.824219 24.773438 32.824219 24.953125 33.082031 C 25.039062 33.203125 25.039062 33.203125 25.109375 33.328125 C 25.195312 33.484375 25.292969 33.628906 25.394531 33.773438 C 25.414062 33.796875 25.433594 33.824219 25.453125 33.851562 C 25.578125 34.035156 25.707031 34.21875 25.835938 34.402344 C 25.851562 34.425781 25.867188 34.445312 25.886719 34.46875 C 25.976562 34.597656 26.074219 34.722656 26.171875 34.84375 C 26.207031 34.886719 26.242188 34.929688 26.277344 34.976562 C 26.292969 35 26.3125 35.023438 26.332031 35.046875 C 26.367188 35.09375 26.40625 35.140625 26.441406 35.1875 C 26.460938 35.210938 26.480469 35.234375 26.496094 35.257812 C 26.515625 35.28125 26.53125 35.304688 26.550781 35.328125 C 26.597656 35.386719 26.644531 35.441406 26.691406 35.5 C 26.757812 35.585938 26.757812 35.585938 26.757812 35.664062 C 26.785156 35.664062 26.808594 35.664062 26.835938 35.664062 C 26.902344 35.738281 26.902344 35.738281 26.976562 35.835938 C 27.015625 35.882812 27.015625 35.882812 27.050781 35.929688 C 27.109375 36.015625 27.109375 36.015625 27.109375 36.09375 C 27.132812 36.101562 27.160156 36.113281 27.183594 36.125 C 27.285156 36.183594 27.277344 36.21875 27.304688 36.328125 C 27.328125 36.339844 27.347656 36.347656 27.371094 36.359375 C 27.496094 36.425781 27.578125 36.523438 27.667969 36.625 C 27.6875 36.648438 27.707031 36.667969 27.726562 36.6875 C 27.761719 36.730469 27.800781 36.773438 27.835938 36.816406 C 27.882812 36.867188 27.933594 36.921875 27.980469 36.972656 C 28.003906 37 28.03125 37.023438 28.054688 37.054688 C 28.078125 37.078125 28.101562 37.101562 28.125 37.125 C 28.136719 37.144531 28.148438 37.164062 28.164062 37.1875 C 28.152344 37.226562 28.136719 37.265625 28.125 37.304688 C 28.050781 37.34375 28.050781 37.34375 27.945312 37.375 C 27.90625 37.390625 27.867188 37.402344 27.828125 37.414062 C 27.785156 37.429688 27.742188 37.445312 27.695312 37.460938 C 27.59375 37.5 27.488281 37.535156 27.386719 37.574219 C 27.359375 37.585938 27.335938 37.59375 27.308594 37.605469 C 27.140625 37.667969 26.972656 37.734375 26.804688 37.796875 C 26.765625 37.8125 26.722656 37.828125 26.679688 37.84375 C 26.601562 37.875 26.519531 37.90625 26.441406 37.9375 C 26.402344 37.953125 26.363281 37.96875 26.324219 37.984375 C 26.292969 37.996094 26.257812 38.011719 26.222656 38.023438 C 26.121094 38.050781 26.074219 38.046875 25.976562 38.007812 C 25.921875 37.945312 25.871094 37.878906 25.820312 37.8125 C 25.753906 37.746094 25.691406 37.683594 25.625 37.617188 C 25.328125 37.308594 25.0625 36.980469 24.804688 36.640625 C 24.78125 36.609375 24.757812 36.582031 24.734375 36.550781 C 24.6875 36.484375 24.6875 36.484375 24.6875 36.40625 C 24.648438 36.394531 24.609375 36.378906 24.570312 36.367188 C 24.519531 36.3125 24.519531 36.3125 24.472656 36.238281 C 24.453125 36.210938 24.433594 36.183594 24.414062 36.15625 C 24.394531 36.128906 24.375 36.097656 24.355469 36.070312 C 24.3125 36.007812 24.269531 35.945312 24.230469 35.886719 C 24.207031 35.855469 24.1875 35.824219 24.164062 35.792969 C 24.074219 35.660156 23.976562 35.535156 23.882812 35.40625 C 23.253906 34.554688 23.253906 34.554688 23.117188 34.21875 C 23.03125 34.015625 22.914062 33.832031 22.800781 33.644531 C 22.503906 33.160156 22.230469 32.664062 21.964844 32.160156 C 21.867188 31.976562 21.867188 31.976562 21.738281 31.820312 C 21.070312 31.125 20.632812 29.507812 20.339844 28.601562 C 20.308594 28.507812 20.277344 28.417969 20.246094 28.324219 C 20.113281 27.949219 20.007812 27.589844 19.953125 27.195312 C 19.929688 27.0625 19.894531 26.933594 19.851562 26.800781 C 19.757812 26.507812 19.691406 26.210938 19.625 25.910156 C 19.605469 25.816406 19.585938 25.726562 19.5625 25.632812 C 19.5 25.339844 19.4375 25.042969 19.390625 24.746094 C 19.371094 24.617188 19.34375 24.492188 19.320312 24.363281 C 19.195312 23.664062 19.09375 22.945312 19.070312 22.234375 C 19.066406 22.113281 19.066406 22.113281 19.042969 22 C 19.023438 21.875 19.019531 21.753906 19.015625 21.628906 C 19.015625 21.578125 19.015625 21.53125 19.015625 21.480469 C 19.015625 21.429688 19.015625 21.375 19.015625 21.324219 C 19.015625 21.269531 19.015625 21.214844 19.015625 21.15625 C 19.015625 20.980469 19.015625 20.800781 19.015625 20.625 C 19.011719 20.59375 19.011719 20.566406 19.011719 20.535156 C 19.011719 19.015625 19.144531 17.554688 19.375 16.054688 C 19.378906 16.019531 19.386719 15.988281 19.390625 15.953125 C 19.40625 15.851562 19.421875 15.75 19.4375 15.648438 C 19.441406 15.621094 19.445312 15.589844 19.453125 15.558594 C 19.484375 15.347656 19.53125 15.144531 19.578125 14.9375 C 19.617188 14.777344 19.640625 14.613281 19.667969 14.449219 C 19.71875 14.136719 19.785156 13.832031 19.875 13.527344 C 19.925781 13.34375 19.96875 13.164062 19.992188 12.972656 C 20.167969 11.78125 20.679688 10.5 21.195312 9.414062 C 21.25 9.300781 21.296875 9.1875 21.34375 9.070312 C 21.464844 8.773438 21.613281 8.488281 21.757812 8.203125 C 21.785156 8.203125 21.808594 8.203125 21.835938 8.203125 C 21.84375 8.171875 21.851562 8.140625 21.863281 8.109375 C 21.929688 7.921875 22.019531 7.75 22.113281 7.570312 C 22.132812 7.53125 22.15625 7.492188 22.175781 7.453125 C 22.367188 7.089844 22.574219 6.738281 22.789062 6.386719 C 22.933594 6.144531 23.066406 5.902344 23.191406 5.648438 C 23.253906 5.523438 23.324219 5.414062 23.40625 5.296875 C 23.4375 5.257812 23.46875 5.214844 23.5 5.171875 C 23.53125 5.128906 23.5625 5.082031 23.59375 5.039062 C 23.648438 4.964844 23.699219 4.890625 23.75 4.816406 C 23.785156 4.769531 23.820312 4.726562 23.851562 4.679688 C 23.921875 4.582031 23.988281 4.484375 24.050781 4.378906 C 24.066406 4.351562 24.082031 4.324219 24.101562 4.296875 C 24.128906 4.296875 24.152344 4.296875 24.179688 4.296875 C 24.191406 4.265625 24.191406 4.265625 24.207031 4.238281 C 24.277344 4.101562 24.363281 3.980469 24.453125 3.859375 C 24.480469 3.820312 24.480469 3.820312 24.507812 3.78125 C 24.550781 3.714844 24.601562 3.65625 24.648438 3.59375 C 24.675781 3.59375 24.699219 3.59375 24.726562 3.59375 C 24.738281 3.554688 24.738281 3.554688 24.75 3.511719 C 24.820312 3.363281 24.917969 3.257812 25.023438 3.136719 C 25.066406 3.089844 25.109375 3.039062 25.152344 2.992188 C 25.183594 2.957031 25.183594 2.957031 25.214844 2.921875 C 25.324219 2.792969 25.425781 2.660156 25.527344 2.527344 C 25.546875 2.503906 25.566406 2.484375 25.585938 2.460938 C 25.613281 2.460938 25.636719 2.460938 25.664062 2.460938 C 25.675781 2.429688 25.683594 2.398438 25.695312 2.367188 C 25.710938 2.332031 25.726562 2.300781 25.742188 2.265625 C 25.78125 2.253906 25.820312 2.238281 25.859375 2.226562 C 25.886719 2.175781 25.910156 2.121094 25.9375 2.070312 C 26 1.988281 26.066406 1.914062 26.132812 1.835938 Z M 22.773438 11.210938 C 22.738281 11.304688 22.703125 11.398438 22.664062 11.492188 C 22.652344 11.53125 22.652344 11.53125 22.636719 11.570312 C 22.554688 11.78125 22.488281 11.996094 22.421875 12.210938 C 22.382812 12.339844 22.34375 12.464844 22.304688 12.59375 C 22.167969 13.035156 22.035156 13.472656 21.9375 13.925781 C 21.910156 14.042969 21.882812 14.160156 21.851562 14.277344 C 21.269531 16.679688 21.019531 19.140625 21.125 21.609375 C 21.132812 21.734375 21.136719 21.859375 21.140625 21.980469 C 21.15625 22.5625 21.246094 23.136719 21.328125 23.710938 C 21.335938 23.753906 21.339844 23.796875 21.347656 23.839844 C 21.59375 25.578125 22.011719 27.453125 22.8125 29.023438 C 22.929688 28.777344 22.996094 28.523438 23.0625 28.257812 C 23.089844 28.167969 23.113281 28.074219 23.136719 27.984375 C 23.148438 27.941406 23.160156 27.894531 23.171875 27.851562 C 23.207031 27.71875 23.246094 27.589844 23.285156 27.460938 C 24.214844 24.222656 24.445312 20.617188 23.039062 11.902344 C 23.011719 11.808594 22.984375 11.710938 22.957031 11.613281 C 22.945312 11.5625 22.929688 11.511719 22.917969 11.460938 C 22.90625 11.421875 22.894531 11.378906 22.882812 11.335938 C 22.859375 11.242188 22.859375 11.242188 22.773438 11.210938 Z M 22.773438 11.210938 "/>
<path style=" stroke:none;fill-rule:nonzero;fill:rgb(94.901961%,46.27451%,21.176471%);fill-opacity:1;" d="M 31.09375 5.125 C 31.1875 5.164062 31.234375 5.210938 31.304688 5.285156 C 31.339844 5.324219 31.339844 5.324219 31.378906 5.367188 C 31.402344 5.394531 31.429688 5.421875 31.453125 5.453125 C 31.507812 5.507812 31.558594 5.566406 31.613281 5.625 C 31.648438 5.664062 31.648438 5.664062 31.6875 5.707031 C 31.769531 5.796875 31.855469 5.878906 31.941406 5.964844 C 32.046875 6.066406 32.136719 6.175781 32.226562 6.289062 C 32.328125 6.394531 32.417969 6.480469 32.539062 6.5625 C 32.539062 6.679688 32.539062 6.679688 32.480469 6.738281 C 32.457031 6.761719 32.429688 6.78125 32.402344 6.804688 C 32.285156 6.902344 32.175781 7.003906 32.066406 7.113281 C 31.972656 7.207031 31.878906 7.296875 31.773438 7.382812 C 31.652344 7.488281 31.546875 7.601562 31.445312 7.726562 C 31.324219 7.859375 31.195312 7.984375 31.066406 8.113281 C 30.992188 8.1875 30.925781 8.261719 30.859375 8.34375 C 30.832031 8.375 30.808594 8.40625 30.78125 8.4375 C 30.753906 8.4375 30.730469 8.4375 30.703125 8.4375 C 30.699219 8.460938 30.695312 8.484375 30.691406 8.511719 C 30.664062 8.59375 30.664062 8.59375 30.589844 8.628906 C 30.476562 8.6875 30.472656 8.753906 30.429688 8.867188 C 30.390625 8.878906 30.351562 8.894531 30.3125 8.90625 C 30.304688 8.933594 30.292969 8.960938 30.28125 8.988281 C 30.222656 9.125 30.140625 9.214844 30.035156 9.324219 C 29.929688 9.453125 29.835938 9.589844 29.746094 9.730469 C 29.726562 9.753906 29.707031 9.78125 29.6875 9.804688 C 29.660156 9.804688 29.636719 9.804688 29.609375 9.804688 C 29.601562 9.832031 29.589844 9.859375 29.578125 9.886719 C 29.523438 10.015625 29.453125 10.128906 29.375 10.246094 C 29.347656 10.289062 29.320312 10.328125 29.292969 10.375 C 29.269531 10.40625 29.242188 10.4375 29.21875 10.46875 C 29.191406 10.46875 29.167969 10.46875 29.140625 10.46875 C 29.136719 10.5 29.136719 10.5 29.132812 10.53125 C 29.089844 10.660156 29.015625 10.769531 28.941406 10.882812 C 28.910156 10.929688 28.875 10.980469 28.84375 11.027344 C 28.8125 11.074219 28.78125 11.125 28.75 11.171875 C 28.699219 11.25 28.652344 11.324219 28.601562 11.402344 C 28.570312 11.449219 28.570312 11.449219 28.539062 11.496094 C 28.472656 11.605469 28.417969 11.714844 28.363281 11.832031 C 28.320312 11.914062 28.277344 11.996094 28.234375 12.078125 C 27.664062 13.128906 27.203125 14.238281 26.875 15.390625 C 26.867188 15.414062 26.859375 15.4375 26.851562 15.464844 C 26.152344 17.847656 26.113281 20.5625 26.582031 22.992188 C 26.601562 23.078125 26.613281 23.160156 26.628906 23.246094 C 26.988281 25.285156 27.679688 27.386719 28.859375 29.109375 C 28.917969 29.195312 28.96875 29.289062 29.019531 29.382812 C 29.117188 29.542969 29.226562 29.691406 29.335938 29.84375 C 29.359375 29.875 29.359375 29.875 29.382812 29.910156 C 29.617188 30.238281 29.859375 30.546875 30.125 30.851562 C 30.21875 30.957031 30.304688 31.066406 30.390625 31.175781 C 30.777344 31.652344 31.234375 32.109375 31.726562 32.476562 C 31.796875 32.539062 31.796875 32.539062 31.835938 32.65625 C 31.902344 32.683594 31.964844 32.707031 32.03125 32.734375 C 32.121094 32.804688 32.121094 32.804688 32.210938 32.886719 C 32.316406 32.988281 32.421875 33.078125 32.539062 33.164062 C 32.480469 33.347656 32.480469 33.347656 32.382812 33.402344 C 32.355469 33.414062 32.332031 33.425781 32.304688 33.4375 C 32.277344 33.488281 32.253906 33.542969 32.226562 33.59375 C 31.851562 34.070312 31.851562 34.070312 31.640625 34.140625 C 31.613281 34.191406 31.589844 34.246094 31.5625 34.296875 C 31.503906 34.359375 31.445312 34.417969 31.382812 34.476562 C 31.261719 34.589844 31.261719 34.589844 31.171875 34.726562 C 30.984375 34.707031 30.890625 34.628906 30.75 34.507812 C 30.71875 34.480469 30.71875 34.480469 30.6875 34.453125 C 30.628906 34.402344 30.566406 34.347656 30.507812 34.296875 C 30.476562 34.269531 30.449219 34.246094 30.417969 34.21875 C 30.363281 34.171875 30.316406 34.128906 30.265625 34.082031 C 30.195312 34.023438 30.128906 33.96875 30.058594 33.914062 C 30.027344 33.886719 29.992188 33.855469 29.960938 33.828125 C 29.960938 33.800781 29.960938 33.777344 29.960938 33.75 C 29.929688 33.738281 29.929688 33.738281 29.894531 33.722656 C 29.78125 33.660156 29.703125 33.578125 29.609375 33.488281 C 29.574219 33.449219 29.535156 33.414062 29.5 33.378906 C 29.480469 33.359375 29.460938 33.339844 29.441406 33.320312 C 29.382812 33.261719 29.328125 33.203125 29.269531 33.144531 C 29.230469 33.109375 29.195312 33.074219 29.160156 33.035156 C 29.109375 32.984375 29.109375 32.984375 29.058594 32.933594 C 28.984375 32.851562 28.984375 32.851562 28.984375 32.773438 C 28.960938 32.765625 28.941406 32.753906 28.917969 32.746094 C 28.804688 32.683594 28.746094 32.605469 28.667969 32.503906 C 28.636719 32.464844 28.605469 32.425781 28.574219 32.386719 C 28.550781 32.359375 28.550781 32.359375 28.527344 32.328125 C 28.445312 32.226562 28.363281 32.128906 28.28125 32.035156 C 28.148438 31.871094 28.015625 31.710938 27.886719 31.542969 C 27.859375 31.503906 27.832031 31.46875 27.800781 31.429688 C 27.742188 31.339844 27.710938 31.277344 27.695312 31.171875 C 27.667969 31.171875 27.644531 31.171875 27.617188 31.171875 C 27.558594 31.097656 27.558594 31.097656 27.488281 30.984375 C 27.460938 30.945312 27.433594 30.902344 27.402344 30.855469 C 27.386719 30.832031 27.371094 30.808594 27.355469 30.785156 C 27.300781 30.695312 27.238281 30.605469 27.179688 30.515625 C 26.960938 30.183594 26.753906 29.855469 26.582031 29.496094 C 26.527344 29.382812 26.46875 29.273438 26.410156 29.164062 C 25.546875 27.601562 25.546875 27.601562 25.414062 26.820312 C 25.386719 26.703125 25.34375 26.597656 25.300781 26.484375 C 25.195312 26.222656 25.121094 25.957031 25.046875 25.683594 C 25.007812 25.527344 24.957031 25.371094 24.90625 25.214844 C 24.746094 24.683594 24.652344 24.132812 24.546875 23.589844 C 24.53125 23.523438 24.519531 23.457031 24.503906 23.386719 C 24.410156 22.914062 24.351562 22.441406 24.304688 21.960938 C 24.304688 21.933594 24.300781 21.90625 24.300781 21.878906 C 24.269531 21.578125 24.25 21.28125 24.257812 20.976562 C 24.230469 20.976562 24.207031 20.976562 24.179688 20.976562 C 24.144531 20.558594 24.132812 20.148438 24.132812 19.730469 C 24.132812 19.628906 24.132812 19.53125 24.132812 19.433594 C 24.132812 19.367188 24.132812 19.304688 24.132812 19.242188 C 24.132812 19.210938 24.132812 19.183594 24.128906 19.152344 C 24.132812 18.953125 24.167969 18.785156 24.21875 18.59375 C 24.226562 18.515625 24.234375 18.441406 24.238281 18.363281 C 24.242188 18.300781 24.242188 18.300781 24.246094 18.238281 C 24.25 18.191406 24.253906 18.148438 24.253906 18.101562 C 24.277344 17.75 24.308594 17.402344 24.351562 17.054688 C 24.355469 17.019531 24.363281 16.984375 24.367188 16.949219 C 24.394531 16.722656 24.445312 16.507812 24.5 16.289062 C 24.539062 16.136719 24.570312 15.984375 24.597656 15.832031 C 24.761719 14.953125 25.003906 14.042969 25.375 13.226562 C 25.417969 13.117188 25.441406 13.042969 25.457031 12.933594 C 25.558594 12.453125 25.835938 11.992188 26.054688 11.5625 C 26.085938 11.496094 26.121094 11.429688 26.152344 11.363281 C 26.246094 11.175781 26.347656 11 26.453125 10.820312 C 26.519531 10.710938 26.578125 10.601562 26.636719 10.492188 C 26.863281 10.078125 27.121094 9.6875 27.382812 9.296875 C 27.410156 9.257812 27.433594 9.21875 27.460938 9.179688 C 27.636719 8.914062 27.832031 8.660156 28.023438 8.40625 C 28.070312 8.339844 28.121094 8.273438 28.167969 8.210938 C 28.3125 8.015625 28.460938 7.820312 28.609375 7.625 C 28.636719 7.59375 28.660156 7.5625 28.6875 7.53125 C 28.71875 7.496094 28.71875 7.496094 28.75 7.460938 C 28.777344 7.460938 28.800781 7.460938 28.828125 7.460938 C 28.839844 7.429688 28.847656 7.398438 28.859375 7.367188 C 28.875 7.332031 28.890625 7.300781 28.90625 7.265625 C 28.945312 7.253906 28.984375 7.238281 29.023438 7.226562 C 29.035156 7.199219 29.046875 7.167969 29.058594 7.136719 C 29.113281 7.003906 29.191406 6.9375 29.296875 6.835938 C 29.335938 6.792969 29.375 6.753906 29.414062 6.710938 C 29.703125 6.398438 30 6.089844 30.300781 5.785156 C 30.34375 5.742188 30.382812 5.703125 30.425781 5.660156 C 30.480469 5.601562 30.539062 5.542969 30.597656 5.488281 C 30.632812 5.453125 30.664062 5.417969 30.699219 5.386719 C 30.78125 5.3125 30.78125 5.3125 30.859375 5.3125 C 30.871094 5.273438 30.886719 5.234375 30.898438 5.195312 C 31.015625 5.117188 31.015625 5.117188 31.09375 5.125 Z M 31.09375 5.125 "/>
<path style=" stroke:none;fill-rule:nonzero;fill:rgb(27.058825%,33.333334%,37.254903%);fill-opacity:1;" d="M 8.828125 5.117188 C 9.125 5.175781 9.425781 5.527344 9.601562 5.757812 C 9.675781 5.84375 9.746094 5.910156 9.835938 5.984375 C 9.992188 6.117188 10.113281 6.269531 10.242188 6.433594 C 10.324219 6.539062 10.414062 6.628906 10.507812 6.71875 C 10.566406 6.785156 10.621094 6.851562 10.679688 6.921875 C 10.726562 6.976562 10.78125 7.03125 10.832031 7.082031 C 10.949219 7.199219 11.058594 7.324219 11.167969 7.453125 C 11.199219 7.488281 11.199219 7.488281 11.230469 7.527344 C 11.355469 7.671875 11.472656 7.820312 11.585938 7.972656 C 11.652344 8.0625 11.722656 8.148438 11.792969 8.234375 C 12.015625 8.515625 12.222656 8.804688 12.421875 9.101562 C 12.480469 9.183594 12.539062 9.269531 12.597656 9.351562 C 12.71875 9.527344 12.828125 9.699219 12.929688 9.882812 C 12.972656 9.953125 13.019531 10.023438 13.0625 10.09375 C 13.164062 10.25 13.257812 10.410156 13.347656 10.574219 C 13.382812 10.636719 13.417969 10.699219 13.457031 10.757812 C 13.703125 11.167969 13.902344 11.597656 14.101562 12.03125 C 14.121094 12.070312 14.136719 12.105469 14.15625 12.144531 C 14.207031 12.253906 14.253906 12.363281 14.304688 12.472656 C 14.320312 12.503906 14.335938 12.539062 14.351562 12.570312 C 14.488281 12.882812 14.484375 13.164062 14.402344 13.496094 C 14.355469 13.703125 14.3125 13.910156 14.28125 14.121094 C 14.25 14.308594 14.21875 14.5 14.183594 14.6875 C 14.035156 15.464844 13.902344 16.25 13.875 17.042969 C 13.867188 17.148438 13.867188 17.148438 13.828125 17.265625 C 13.554688 19.824219 13.730469 22.488281 14.125 25.015625 C 14.128906 25.046875 14.132812 25.074219 14.136719 25.105469 C 14.167969 25.296875 14.210938 25.476562 14.257812 25.664062 C 14.292969 25.832031 14.324219 26.003906 14.359375 26.171875 C 14.367188 26.214844 14.375 26.261719 14.382812 26.304688 C 14.40625 26.429688 14.429688 26.554688 14.453125 26.679688 C 14.460938 26.710938 14.464844 26.738281 14.472656 26.769531 C 14.507812 26.980469 14.464844 27.125 14.390625 27.3125 C 14.378906 27.34375 14.367188 27.375 14.351562 27.410156 C 13.859375 28.660156 13.222656 29.90625 12.421875 30.988281 C 12.351562 31.085938 12.28125 31.183594 12.214844 31.28125 C 11.9375 31.679688 11.625 32.054688 11.308594 32.425781 C 11.257812 32.484375 11.207031 32.542969 11.15625 32.605469 C 11.113281 32.664062 11.0625 32.71875 11.015625 32.773438 C 10.988281 32.773438 10.964844 32.773438 10.9375 32.773438 C 10.925781 32.796875 10.917969 32.820312 10.90625 32.84375 C 10.792969 33.058594 10.601562 33.230469 10.429688 33.398438 C 10.398438 33.433594 10.367188 33.46875 10.332031 33.503906 C 10.234375 33.59375 10.234375 33.59375 10.128906 33.636719 C 10.015625 33.679688 10.011719 33.722656 9.960938 33.828125 C 9.910156 33.855469 9.855469 33.878906 9.804688 33.90625 C 9.796875 33.929688 9.785156 33.949219 9.777344 33.972656 C 9.703125 34.105469 9.585938 34.183594 9.464844 34.273438 C 9.414062 34.308594 9.367188 34.347656 9.316406 34.386719 C 9.28125 34.414062 9.28125 34.414062 9.246094 34.441406 C 9.164062 34.503906 9.09375 34.570312 9.019531 34.640625 C 8.90625 34.726562 8.90625 34.726562 8.832031 34.722656 C 8.71875 34.671875 8.648438 34.597656 8.5625 34.507812 C 8.527344 34.472656 8.492188 34.4375 8.457031 34.402344 C 8.355469 34.292969 8.253906 34.179688 8.15625 34.066406 C 8.074219 33.96875 7.980469 33.878906 7.890625 33.789062 C 7.769531 33.667969 7.648438 33.546875 7.535156 33.421875 C 7.5 33.386719 7.5 33.386719 7.46875 33.351562 C 7.421875 33.28125 7.421875 33.28125 7.421875 33.125 C 7.503906 33.046875 7.585938 32.984375 7.675781 32.917969 C 7.726562 32.878906 7.777344 32.839844 7.828125 32.804688 C 7.863281 32.777344 7.863281 32.777344 7.902344 32.746094 C 8.015625 32.660156 8.121094 32.5625 8.222656 32.464844 C 8.28125 32.421875 8.28125 32.421875 8.359375 32.421875 C 8.367188 32.398438 8.378906 32.375 8.390625 32.351562 C 8.445312 32.253906 8.507812 32.195312 8.59375 32.117188 C 8.621094 32.09375 8.648438 32.070312 8.675781 32.046875 C 8.75 31.992188 8.75 31.992188 8.828125 31.992188 C 8.839844 31.960938 8.839844 31.960938 8.855469 31.925781 C 8.933594 31.785156 9.039062 31.667969 9.1875 31.601562 C 9.289062 31.546875 9.292969 31.472656 9.335938 31.367188 C 9.398438 31.300781 9.464844 31.234375 9.53125 31.171875 C 9.816406 30.875 10.066406 30.5625 10.3125 30.234375 C 10.339844 30.199219 10.367188 30.160156 10.394531 30.125 C 10.585938 29.867188 10.761719 29.601562 10.9375 29.335938 C 10.953125 29.3125 10.96875 29.289062 10.980469 29.269531 C 11.273438 28.824219 11.523438 28.367188 11.757812 27.890625 C 11.792969 27.816406 11.832031 27.742188 11.871094 27.667969 C 12.367188 26.691406 12.78125 25.625 13.023438 24.554688 C 13.039062 24.480469 13.058594 24.40625 13.074219 24.332031 C 13.371094 23.113281 13.589844 21.84375 13.59375 20.585938 C 13.59375 20.519531 13.59375 20.453125 13.59375 20.386719 C 13.597656 20.152344 13.597656 19.917969 13.597656 19.683594 C 13.597656 19.625 13.597656 19.625 13.597656 19.566406 C 13.601562 18.78125 13.578125 18.011719 13.449219 17.234375 C 13.445312 17.203125 13.4375 17.171875 13.433594 17.140625 C 13.21875 15.816406 12.839844 14.550781 12.304688 13.320312 C 12.292969 13.289062 12.277344 13.261719 12.265625 13.230469 C 12.179688 13.039062 12.089844 12.847656 11.996094 12.660156 C 11.96875 12.605469 11.9375 12.550781 11.910156 12.492188 C 11.898438 12.46875 11.886719 12.441406 11.871094 12.414062 C 11.828125 12.328125 11.785156 12.238281 11.742188 12.148438 C 11.652344 11.972656 11.558594 11.804688 11.464844 11.632812 C 11.441406 11.59375 11.441406 11.59375 11.421875 11.554688 C 11.324219 11.378906 11.210938 11.21875 11.09375 11.054688 C 11.066406 11.007812 11.039062 10.960938 11.011719 10.914062 C 10.960938 10.824219 10.910156 10.738281 10.851562 10.652344 C 10.78125 10.546875 10.78125 10.546875 10.78125 10.46875 C 10.753906 10.46875 10.730469 10.46875 10.703125 10.46875 C 10.640625 10.378906 10.640625 10.378906 10.570312 10.265625 C 10.472656 10.105469 10.472656 10.105469 10.363281 9.953125 C 10.3125 9.882812 10.3125 9.882812 10.3125 9.804688 C 10.285156 9.804688 10.261719 9.804688 10.234375 9.804688 C 10.179688 9.726562 10.128906 9.648438 10.078125 9.570312 C 10.054688 9.542969 10.03125 9.511719 10.007812 9.484375 C 9.960938 9.414062 9.960938 9.414062 9.960938 9.335938 C 9.902344 9.316406 9.902344 9.316406 9.84375 9.296875 C 9.777344 9.222656 9.777344 9.222656 9.710938 9.132812 C 9.6875 9.097656 9.660156 9.066406 9.636719 9.035156 C 9.617188 9.003906 9.59375 8.976562 9.570312 8.945312 C 9.539062 8.90625 9.507812 8.871094 9.476562 8.832031 C 9.414062 8.75 9.414062 8.75 9.414062 8.671875 C 9.375 8.660156 9.335938 8.644531 9.296875 8.632812 C 9.285156 8.601562 9.273438 8.570312 9.261719 8.539062 C 9.210938 8.414062 9.175781 8.417969 9.0625 8.359375 C 8.996094 8.292969 8.996094 8.292969 8.9375 8.222656 C 8.914062 8.199219 8.894531 8.175781 8.875 8.152344 C 8.828125 8.085938 8.828125 8.085938 8.828125 8.007812 C 8.804688 8 8.785156 7.988281 8.761719 7.980469 C 8.539062 7.855469 8.378906 7.625 8.214844 7.4375 C 8.125 7.34375 8.03125 7.265625 7.929688 7.1875 C 7.863281 7.125 7.796875 7.058594 7.734375 6.992188 C 7.699219 6.957031 7.667969 6.925781 7.632812 6.890625 C 7.601562 6.859375 7.570312 6.828125 7.539062 6.796875 C 7.515625 6.777344 7.492188 6.757812 7.464844 6.734375 C 7.421875 6.679688 7.421875 6.679688 7.429688 6.605469 C 7.46875 6.503906 7.519531 6.453125 7.601562 6.375 C 7.714844 6.269531 7.816406 6.164062 7.917969 6.046875 C 8.203125 5.714844 8.203125 5.714844 8.359375 5.664062 C 8.386719 5.613281 8.414062 5.5625 8.4375 5.507812 C 8.480469 5.453125 8.527344 5.398438 8.570312 5.347656 C 8.59375 5.320312 8.617188 5.292969 8.640625 5.265625 C 8.710938 5.195312 8.710938 5.195312 8.828125 5.117188 Z M 8.828125 5.117188 "/>
<path style=" stroke:none;fill-rule:nonzero;fill:rgb(95.294118%,46.666667%,21.176471%);fill-opacity:1;" d="M 34.53125 9.726562 C 34.550781 9.769531 34.570312 9.8125 34.589844 9.859375 C 34.71875 10.160156 34.855469 10.457031 35.003906 10.75 C 35.015625 10.777344 35.027344 10.800781 35.039062 10.828125 C 35.105469 10.957031 35.171875 11.082031 35.238281 11.207031 C 35.25 11.234375 35.265625 11.257812 35.277344 11.28125 C 35.3125 11.351562 35.347656 11.417969 35.382812 11.484375 C 35.433594 11.617188 35.445312 11.667969 35.390625 11.796875 C 35.3125 11.878906 35.3125 11.878906 35.214844 11.960938 C 35.03125 12.117188 34.875 12.285156 34.71875 12.464844 C 34.695312 12.488281 34.671875 12.515625 34.648438 12.539062 C 34.621094 12.539062 34.597656 12.539062 34.570312 12.539062 C 34.558594 12.582031 34.558594 12.582031 34.542969 12.625 C 34.480469 12.757812 34.402344 12.828125 34.296875 12.929688 C 34.246094 12.996094 34.191406 13.058594 34.140625 13.125 C 34.117188 13.152344 34.09375 13.183594 34.070312 13.210938 C 33.902344 13.414062 33.75 13.625 33.601562 13.839844 C 33.503906 13.984375 33.402344 14.125 33.292969 14.261719 C 33.226562 14.359375 33.175781 14.464844 33.125 14.570312 C 33.089844 14.632812 33.054688 14.695312 33.023438 14.757812 C 32.640625 15.449219 32.316406 16.125 32.070312 16.875 C 32.0625 16.902344 32.050781 16.929688 32.042969 16.957031 C 31.921875 17.324219 31.839844 17.691406 31.765625 18.070312 C 31.757812 18.113281 31.75 18.15625 31.742188 18.199219 C 31.648438 18.710938 31.632812 19.222656 31.636719 19.742188 C 31.636719 19.824219 31.636719 19.90625 31.636719 19.988281 C 31.636719 20.554688 31.675781 21.105469 31.789062 21.664062 C 31.796875 21.71875 31.808594 21.773438 31.820312 21.828125 C 31.933594 22.414062 32.050781 22.996094 32.261719 23.554688 C 32.300781 23.65625 32.332031 23.757812 32.359375 23.863281 C 32.5625 24.550781 32.886719 25.261719 33.28125 25.859375 C 33.304688 25.898438 33.332031 25.9375 33.355469 25.976562 C 33.617188 26.371094 33.902344 26.734375 34.210938 27.089844 C 34.25 27.140625 34.289062 27.1875 34.332031 27.234375 C 34.46875 27.398438 34.605469 27.558594 34.777344 27.683594 C 34.800781 27.699219 34.820312 27.71875 34.84375 27.734375 C 34.84375 27.761719 34.84375 27.785156 34.84375 27.8125 C 34.863281 27.820312 34.886719 27.832031 34.90625 27.839844 C 35.027344 27.90625 35.121094 27.984375 35.226562 28.070312 C 35.261719 28.101562 35.300781 28.136719 35.339844 28.167969 C 35.371094 28.191406 35.398438 28.21875 35.429688 28.242188 C 35.195312 28.835938 34.914062 29.40625 34.609375 29.96875 C 34.570312 30.042969 34.53125 30.117188 34.492188 30.195312 C 34.371094 30.171875 34.300781 30.136719 34.207031 30.054688 C 34.171875 30.023438 34.171875 30.023438 34.136719 29.988281 C 34.109375 29.96875 34.085938 29.945312 34.058594 29.921875 C 34.007812 29.875 33.953125 29.828125 33.902344 29.78125 C 33.875 29.757812 33.847656 29.734375 33.824219 29.710938 C 33.730469 29.628906 33.632812 29.550781 33.53125 29.476562 C 33.351562 29.328125 33.183594 29.171875 33.019531 29.007812 C 32.984375 28.96875 32.984375 28.96875 32.945312 28.933594 C 32.773438 28.757812 32.773438 28.757812 32.773438 28.671875 C 32.746094 28.671875 32.722656 28.671875 32.695312 28.671875 C 32.640625 28.613281 32.585938 28.546875 32.535156 28.484375 C 32.417969 28.335938 32.296875 28.1875 32.171875 28.039062 C 31.828125 27.617188 31.527344 27.152344 31.25 26.679688 C 31.234375 26.65625 31.222656 26.632812 31.207031 26.605469 C 30.75 25.832031 30.417969 24.988281 30.160156 24.125 C 30.132812 24.039062 30.105469 23.953125 30.078125 23.867188 C 29.867188 23.226562 29.738281 22.554688 29.617188 21.890625 C 29.609375 21.847656 29.601562 21.804688 29.59375 21.761719 C 29.523438 21.390625 29.488281 21.023438 29.46875 20.648438 C 29.46875 20.589844 29.46875 20.589844 29.464844 20.53125 C 29.453125 20.1875 29.445312 19.839844 29.453125 19.492188 C 29.453125 19.460938 29.453125 19.429688 29.453125 19.394531 C 29.492188 17.441406 30.097656 15.394531 31.09375 13.710938 C 31.109375 13.683594 31.125 13.652344 31.144531 13.625 C 31.324219 13.320312 31.519531 13.027344 31.71875 12.734375 C 31.742188 12.699219 31.765625 12.664062 31.789062 12.628906 C 32.1875 12.046875 32.652344 11.503906 33.128906 10.980469 C 33.191406 10.914062 33.25 10.839844 33.3125 10.769531 C 33.457031 10.597656 33.613281 10.453125 33.789062 10.3125 C 33.835938 10.265625 33.835938 10.265625 33.882812 10.21875 C 33.980469 10.121094 34.085938 10.027344 34.195312 9.9375 C 34.265625 9.878906 34.265625 9.878906 34.34375 9.789062 C 34.414062 9.726562 34.414062 9.726562 34.53125 9.726562 Z M 34.53125 9.726562 "/>
<path style=" stroke:none;fill-rule:nonzero;fill:rgb(27.058825%,33.333334%,37.64706%);fill-opacity:1;" d="M 5.546875 9.726562 C 5.714844 9.746094 5.785156 9.84375 5.898438 9.960938 C 5.945312 10 5.988281 10.039062 6.035156 10.078125 C 6.152344 10.175781 6.261719 10.28125 6.367188 10.390625 C 6.386719 10.410156 6.410156 10.429688 6.429688 10.453125 C 6.570312 10.59375 6.707031 10.734375 6.835938 10.886719 C 6.949219 11.019531 7.070312 11.144531 7.1875 11.273438 C 7.402344 11.503906 7.59375 11.75 7.785156 12 C 7.820312 12.042969 7.820312 12.042969 7.851562 12.089844 C 8.550781 13.007812 8.550781 13.007812 8.8125 13.492188 C 8.871094 13.597656 8.929688 13.699219 8.988281 13.804688 C 9.203125 14.179688 9.390625 14.566406 9.570312 14.960938 C 9.582031 14.984375 9.59375 15.011719 9.605469 15.035156 C 9.773438 15.40625 9.914062 15.785156 10.039062 16.171875 C 10.046875 16.203125 10.058594 16.230469 10.070312 16.261719 C 10.789062 18.503906 10.789062 21.039062 10.121094 23.289062 C 10.085938 23.414062 10.050781 23.542969 10.023438 23.667969 C 9.878906 24.253906 9.703125 24.902344 9.414062 25.433594 C 9.367188 25.523438 9.328125 25.613281 9.289062 25.707031 C 9.042969 26.269531 8.746094 26.835938 8.382812 27.332031 C 8.296875 27.457031 8.214844 27.582031 8.136719 27.710938 C 8.117188 27.730469 8.101562 27.753906 8.085938 27.773438 C 8.058594 27.773438 8.035156 27.773438 8.007812 27.773438 C 7.996094 27.8125 7.996094 27.8125 7.980469 27.855469 C 7.917969 27.992188 7.832031 28.097656 7.730469 28.210938 C 7.710938 28.234375 7.691406 28.253906 7.671875 28.277344 C 7.617188 28.34375 7.558594 28.410156 7.5 28.476562 C 7.472656 28.507812 7.445312 28.542969 7.414062 28.574219 C 7.011719 29.035156 6.578125 29.464844 6.09375 29.84375 C 5.980469 29.9375 5.867188 30.035156 5.753906 30.128906 C 5.664062 30.195312 5.664062 30.195312 5.546875 30.195312 C 5.371094 29.847656 5.199219 29.503906 5.039062 29.148438 C 4.972656 29.015625 4.910156 28.878906 4.839844 28.75 C 4.828125 28.722656 4.8125 28.699219 4.800781 28.671875 C 4.765625 28.605469 4.730469 28.539062 4.695312 28.472656 C 4.648438 28.359375 4.648438 28.359375 4.648438 28.277344 C 4.710938 28.160156 4.808594 28.089844 4.914062 28.011719 C 5.066406 27.886719 5.214844 27.761719 5.351562 27.617188 C 5.402344 27.570312 5.402344 27.570312 5.453125 27.519531 C 5.550781 27.421875 5.550781 27.421875 5.632812 27.3125 C 5.65625 27.285156 5.679688 27.253906 5.703125 27.226562 C 5.730469 27.226562 5.753906 27.226562 5.78125 27.226562 C 5.78125 27.199219 5.78125 27.175781 5.78125 27.148438 C 5.808594 27.148438 5.832031 27.148438 5.859375 27.148438 C 5.867188 27.128906 5.875 27.109375 5.886719 27.085938 C 5.957031 26.957031 6.046875 26.847656 6.140625 26.734375 C 6.570312 26.191406 6.925781 25.621094 7.230469 24.996094 C 7.265625 24.917969 7.308594 24.839844 7.347656 24.761719 C 7.671875 24.109375 7.890625 23.367188 8.046875 22.65625 C 8.054688 22.617188 8.066406 22.574219 8.074219 22.53125 C 8.148438 22.199219 8.214844 21.859375 8.28125 21.523438 C 8.289062 21.488281 8.296875 21.453125 8.304688 21.414062 C 8.40625 20.886719 8.410156 20.355469 8.410156 19.816406 C 8.410156 19.78125 8.410156 19.746094 8.410156 19.710938 C 8.414062 19.003906 8.359375 18.332031 8.191406 17.648438 C 8.179688 17.59375 8.167969 17.542969 8.152344 17.492188 C 7.867188 16.320312 7.347656 15.0625 6.609375 14.09375 C 6.5625 14.023438 6.5625 14.023438 6.5625 13.90625 C 6.535156 13.90625 6.511719 13.90625 6.484375 13.90625 C 6.417969 13.824219 6.417969 13.824219 6.34375 13.714844 C 6.316406 13.679688 6.292969 13.644531 6.269531 13.609375 C 6.210938 13.515625 6.210938 13.515625 6.210938 13.4375 C 6.183594 13.4375 6.160156 13.4375 6.132812 13.4375 C 6.09375 13.382812 6.058594 13.328125 6.023438 13.273438 C 5.9375 13.144531 5.835938 13.035156 5.734375 12.921875 C 5.710938 12.894531 5.691406 12.867188 5.667969 12.84375 C 5.601562 12.765625 5.535156 12.691406 5.46875 12.617188 C 5.4375 12.582031 5.40625 12.542969 5.371094 12.507812 C 5.027344 12.085938 5.027344 12.085938 4.609375 11.757812 C 4.632812 11.59375 4.6875 11.472656 4.765625 11.324219 C 4.902344 11.058594 5.027344 10.785156 5.148438 10.511719 C 5.269531 10.242188 5.390625 9.976562 5.546875 9.726562 Z M 5.546875 9.726562 "/>
<path style=" stroke:none;fill-rule:nonzero;fill:rgb(27.058825%,33.333334%,37.254903%);fill-opacity:1;" d="M 18.203125 8.125 C 18.378906 8.296875 18.460938 8.492188 18.546875 8.71875 C 18.585938 8.804688 18.621094 8.886719 18.664062 8.96875 C 18.765625 9.167969 18.851562 9.375 18.9375 9.578125 C 18.953125 9.621094 18.972656 9.660156 18.988281 9.703125 C 19.136719 10.058594 19.261719 10.414062 19.386719 10.773438 C 19.425781 10.898438 19.472656 11.023438 19.515625 11.144531 C 19.660156 11.542969 19.792969 11.941406 19.914062 12.347656 C 19.921875 12.375 19.929688 12.402344 19.9375 12.433594 C 20.089844 12.953125 19.957031 13.398438 19.824219 13.910156 C 19.738281 14.246094 19.667969 14.582031 19.617188 14.925781 C 19.589844 15.089844 19.554688 15.253906 19.515625 15.414062 C 19.421875 15.808594 19.382812 16.210938 19.332031 16.613281 C 19.324219 16.695312 19.3125 16.777344 19.304688 16.855469 C 19.285156 17.011719 19.265625 17.171875 19.246094 17.328125 C 19.230469 17.453125 19.214844 17.574219 19.195312 17.699219 C 19.070312 18.632812 19.050781 19.566406 19.054688 20.507812 C 19.054688 20.628906 19.054688 20.75 19.054688 20.871094 C 19.054688 20.988281 19.054688 21.105469 19.054688 21.222656 C 19.054688 21.28125 19.054688 21.335938 19.054688 21.390625 C 19.054688 21.46875 19.054688 21.542969 19.058594 21.621094 C 19.058594 21.664062 19.058594 21.707031 19.058594 21.753906 C 19.0625 21.875 19.078125 21.988281 19.101562 22.109375 C 19.109375 22.207031 19.113281 22.308594 19.117188 22.40625 C 19.136719 22.757812 19.175781 23.105469 19.222656 23.457031 C 19.234375 23.554688 19.25 23.65625 19.261719 23.757812 C 19.269531 23.820312 19.277344 23.886719 19.285156 23.953125 C 19.289062 23.980469 19.292969 24.011719 19.296875 24.042969 C 19.320312 24.21875 19.355469 24.394531 19.394531 24.570312 C 19.417969 24.667969 19.433594 24.761719 19.449219 24.863281 C 19.5 25.179688 19.570312 25.492188 19.640625 25.804688 C 19.648438 25.835938 19.65625 25.867188 19.660156 25.898438 C 19.75 26.296875 19.84375 26.695312 19.964844 27.085938 C 20.066406 27.496094 20.011719 27.769531 19.859375 28.167969 C 19.84375 28.21875 19.824219 28.269531 19.804688 28.320312 C 19.753906 28.464844 19.703125 28.609375 19.648438 28.75 C 19.625 28.8125 19.605469 28.871094 19.582031 28.933594 C 19.535156 29.054688 19.492188 29.175781 19.445312 29.296875 C 19.410156 29.386719 19.375 29.480469 19.339844 29.574219 C 19.199219 29.953125 19.050781 30.324219 18.875 30.6875 C 18.828125 30.785156 18.78125 30.882812 18.734375 30.976562 C 18.691406 31.074219 18.644531 31.171875 18.597656 31.269531 C 18.574219 31.316406 18.554688 31.367188 18.53125 31.414062 C 18.5 31.484375 18.464844 31.554688 18.433594 31.621094 C 18.414062 31.664062 18.394531 31.703125 18.375 31.742188 C 18.320312 31.835938 18.320312 31.835938 18.203125 31.875 C 18.078125 31.640625 17.988281 31.402344 17.898438 31.152344 C 17.847656 31.003906 17.792969 30.863281 17.734375 30.71875 C 17.679688 30.582031 17.628906 30.445312 17.582031 30.308594 C 17.535156 30.183594 17.488281 30.0625 17.4375 29.9375 C 17.148438 29.183594 17.148438 29.183594 17.261719 28.890625 C 17.296875 28.816406 17.332031 28.746094 17.367188 28.671875 C 17.457031 28.484375 17.519531 28.285156 17.589844 28.089844 C 17.621094 28 17.652344 27.914062 17.683594 27.828125 C 17.839844 27.390625 17.976562 26.953125 18.097656 26.503906 C 18.125 26.414062 18.148438 26.320312 18.175781 26.226562 C 18.515625 24.988281 18.734375 23.707031 18.828125 22.421875 C 18.832031 22.355469 18.832031 22.355469 18.839844 22.289062 C 19.101562 18.898438 18.636719 15.453125 17.578125 12.226562 C 17.566406 12.191406 17.554688 12.15625 17.542969 12.121094 C 17.507812 12.007812 17.46875 11.898438 17.433594 11.789062 C 17.421875 11.757812 17.410156 11.722656 17.398438 11.6875 C 17.351562 11.539062 17.296875 11.390625 17.238281 11.242188 C 17.148438 11 17.183594 10.792969 17.257812 10.550781 C 17.269531 10.503906 17.285156 10.460938 17.296875 10.414062 C 17.335938 10.292969 17.378906 10.171875 17.425781 10.054688 C 17.46875 9.941406 17.511719 9.828125 17.550781 9.714844 C 17.570312 9.667969 17.585938 9.625 17.601562 9.578125 C 17.636719 9.484375 17.671875 9.394531 17.703125 9.300781 C 17.976562 8.570312 17.976562 8.570312 18.117188 8.296875 C 18.132812 8.261719 18.148438 8.230469 18.164062 8.195312 C 18.179688 8.171875 18.191406 8.148438 18.203125 8.125 Z M 18.203125 8.125 "/>
<path style=" stroke:none;fill-rule:nonzero;fill:rgb(27.450982%,33.333334%,37.254903%);fill-opacity:1;" d="M 24.179688 20.976562 C 24.207031 20.976562 24.230469 20.976562 24.257812 20.976562 C 24.261719 21.023438 24.265625 21.066406 24.269531 21.113281 C 24.363281 22.257812 24.363281 22.257812 24.546875 23.394531 C 24.5625 23.484375 24.582031 23.578125 24.601562 23.671875 C 24.769531 24.550781 24.769531 24.550781 25.011719 25.414062 C 25.046875 25.535156 25.082031 25.652344 25.117188 25.773438 C 25.128906 25.820312 25.144531 25.867188 25.160156 25.914062 C 25.1875 26.007812 25.210938 26.101562 25.238281 26.199219 C 25.316406 26.457031 25.316406 26.457031 25.417969 26.707031 C 25.582031 27.117188 25.457031 27.5 25.351562 27.910156 C 25.335938 27.976562 25.320312 28.039062 25.300781 28.105469 C 25.261719 28.265625 25.21875 28.425781 25.179688 28.585938 C 25.160156 28.664062 25.136719 28.742188 25.117188 28.820312 C 24.855469 29.839844 24.53125 30.84375 24.179688 31.835938 C 24.027344 31.699219 23.929688 31.558594 23.839844 31.375 C 23.824219 31.351562 23.8125 31.324219 23.800781 31.300781 C 23.757812 31.21875 23.71875 31.136719 23.675781 31.058594 C 23.648438 31.003906 23.621094 30.953125 23.597656 30.898438 C 23.53125 30.769531 23.464844 30.636719 23.398438 30.507812 C 23.359375 30.429688 23.320312 30.351562 23.28125 30.273438 C 23.257812 30.226562 23.230469 30.175781 23.207031 30.128906 C 23.183594 30.085938 23.164062 30.042969 23.140625 29.996094 C 23.074219 29.855469 23.019531 29.71875 22.96875 29.570312 C 22.953125 29.539062 22.941406 29.507812 22.925781 29.476562 C 22.910156 29.445312 22.894531 29.410156 22.882812 29.378906 C 22.867188 29.347656 22.851562 29.320312 22.839844 29.289062 C 22.765625 28.988281 22.886719 28.6875 22.976562 28.402344 C 23.003906 28.324219 23.027344 28.242188 23.054688 28.164062 C 23.066406 28.125 23.078125 28.082031 23.089844 28.042969 C 23.398438 27.035156 23.609375 25.996094 23.789062 24.960938 C 23.792969 24.933594 23.800781 24.902344 23.804688 24.875 C 24.027344 23.582031 24.105469 22.28125 24.179688 20.976562 Z M 24.179688 20.976562 "/>
<path style=" stroke:none;fill-rule:nonzero;fill:rgb(27.058825%,33.333334%,37.254903%);fill-opacity:1;" d="M 13.871094 1.839844 C 13.972656 1.886719 14.027344 1.953125 14.101562 2.039062 C 14.132812 2.074219 14.164062 2.109375 14.195312 2.144531 C 14.210938 2.164062 14.226562 2.183594 14.246094 2.203125 C 14.296875 2.265625 14.351562 2.328125 14.40625 2.390625 C 14.621094 2.636719 14.828125 2.886719 15.035156 3.140625 C 15.066406 3.175781 15.066406 3.175781 15.097656 3.214844 C 15.199219 3.34375 15.304688 3.476562 15.40625 3.609375 C 15.425781 3.632812 15.445312 3.660156 15.464844 3.683594 C 15.507812 3.75 15.507812 3.75 15.507812 3.828125 C 15.535156 3.828125 15.558594 3.828125 15.585938 3.828125 C 15.636719 3.886719 15.636719 3.886719 15.695312 3.96875 C 15.714844 3.996094 15.734375 4.027344 15.757812 4.054688 C 15.78125 4.089844 15.800781 4.121094 15.824219 4.152344 C 15.871094 4.21875 15.917969 4.28125 15.964844 4.347656 C 15.984375 4.378906 16.007812 4.410156 16.03125 4.445312 C 16.105469 4.550781 16.183594 4.65625 16.261719 4.761719 C 16.394531 4.941406 16.519531 5.128906 16.644531 5.316406 C 16.691406 5.390625 16.742188 5.460938 16.792969 5.527344 C 16.824219 5.574219 16.824219 5.574219 16.859375 5.621094 C 16.878906 5.644531 16.898438 5.671875 16.917969 5.699219 C 16.980469 5.84375 16.929688 5.980469 16.871094 6.121094 C 16.855469 6.15625 16.839844 6.191406 16.820312 6.230469 C 16.804688 6.269531 16.785156 6.308594 16.765625 6.351562 C 16.746094 6.390625 16.726562 6.433594 16.707031 6.476562 C 16.585938 6.734375 16.464844 6.992188 16.363281 7.257812 C 16.3125 7.378906 16.261719 7.5 16.207031 7.621094 C 16.144531 7.773438 16.082031 7.921875 16.027344 8.078125 C 16.011719 8.121094 15.992188 8.160156 15.976562 8.203125 C 15.9375 8.214844 15.898438 8.230469 15.859375 8.242188 C 15.832031 8.191406 15.832031 8.191406 15.804688 8.136719 C 15.621094 7.78125 15.417969 7.4375 15.199219 7.101562 C 15.160156 7.039062 15.121094 6.976562 15.082031 6.914062 C 14.9375 6.683594 14.789062 6.460938 14.636719 6.238281 C 14.574219 6.140625 14.53125 6.046875 14.492188 5.9375 C 14.464844 5.9375 14.441406 5.9375 14.414062 5.9375 C 14.355469 5.859375 14.300781 5.785156 14.25 5.703125 C 14.214844 5.65625 14.183594 5.609375 14.152344 5.5625 C 14.128906 5.527344 14.128906 5.527344 14.105469 5.492188 C 14.03125 5.382812 13.949219 5.28125 13.867188 5.175781 C 13.828125 5.117188 13.828125 5.117188 13.828125 5.039062 C 13.789062 5.027344 13.75 5.011719 13.710938 5 C 13.65625 4.933594 13.601562 4.863281 13.550781 4.789062 C 13.519531 4.746094 13.488281 4.703125 13.457031 4.660156 C 13.441406 4.640625 13.421875 4.617188 13.40625 4.59375 C 13.203125 4.324219 12.980469 4.066406 12.75 3.820312 C 12.695312 3.75 12.695312 3.75 12.695312 3.671875 C 12.671875 3.664062 12.652344 3.65625 12.628906 3.644531 C 12.511719 3.578125 12.453125 3.496094 12.375 3.394531 C 12.234375 3.21875 12.09375 3.066406 11.925781 2.921875 C 11.875 2.851562 11.875 2.851562 11.882812 2.773438 C 11.914062 2.695312 11.914062 2.695312 11.980469 2.652344 C 12.007812 2.640625 12.039062 2.628906 12.066406 2.617188 C 12.101562 2.605469 12.132812 2.589844 12.164062 2.578125 C 12.21875 2.554688 12.21875 2.554688 12.273438 2.535156 C 12.347656 2.503906 12.421875 2.472656 12.496094 2.441406 C 12.535156 2.425781 12.574219 2.410156 12.613281 2.394531 C 12.8125 2.3125 13.007812 2.222656 13.203125 2.132812 C 13.238281 2.117188 13.273438 2.101562 13.3125 2.085938 C 13.449219 2.023438 13.578125 1.960938 13.707031 1.878906 C 13.789062 1.835938 13.789062 1.835938 13.871094 1.839844 Z M 13.871094 1.839844 "/>
<path style=" stroke:none;fill-rule:nonzero;fill:rgb(27.058825%,33.333334%,37.254903%);fill-opacity:1;" d="M 15.898438 31.757812 C 16.0625 31.851562 16.109375 31.980469 16.171875 32.152344 C 16.183594 32.175781 16.191406 32.203125 16.203125 32.230469 C 16.230469 32.308594 16.261719 32.382812 16.289062 32.460938 C 16.390625 32.726562 16.503906 32.984375 16.625 33.242188 C 16.6875 33.371094 16.742188 33.5 16.796875 33.632812 C 16.8125 33.664062 16.824219 33.695312 16.839844 33.726562 C 16.929688 33.933594 16.988281 34.074219 16.914062 34.296875 C 16.75 34.597656 16.539062 34.871094 16.339844 35.144531 C 16.285156 35.226562 16.230469 35.304688 16.175781 35.386719 C 16.078125 35.535156 15.972656 35.671875 15.867188 35.8125 C 15.847656 35.839844 15.824219 35.867188 15.804688 35.898438 C 15.675781 36.066406 15.550781 36.230469 15.421875 36.394531 C 15.367188 36.464844 15.3125 36.535156 15.261719 36.605469 C 15.082031 36.839844 14.898438 37.066406 14.695312 37.285156 C 14.601562 37.390625 14.511719 37.5 14.421875 37.609375 C 14.394531 37.644531 14.367188 37.679688 14.335938 37.714844 C 14.289062 37.773438 14.246094 37.832031 14.203125 37.894531 C 14.15625 37.960938 14.15625 37.960938 14.0625 38.046875 C 13.863281 38.054688 13.695312 37.976562 13.515625 37.898438 C 13.375 37.84375 13.234375 37.789062 13.09375 37.738281 C 12.683594 37.585938 12.277344 37.429688 11.875 37.265625 C 11.929688 37.140625 12 37.046875 12.089844 36.945312 C 12.113281 36.914062 12.136719 36.886719 12.160156 36.859375 C 12.226562 36.796875 12.226562 36.796875 12.304688 36.796875 C 12.3125 36.777344 12.320312 36.757812 12.328125 36.734375 C 12.40625 36.597656 12.511719 36.496094 12.621094 36.382812 C 12.875 36.113281 13.136719 35.835938 13.335938 35.519531 C 13.359375 35.488281 13.378906 35.460938 13.398438 35.429688 C 13.425781 35.429688 13.449219 35.429688 13.476562 35.429688 C 13.484375 35.410156 13.496094 35.386719 13.503906 35.367188 C 13.570312 35.246094 13.652344 35.144531 13.734375 35.035156 C 13.914062 34.804688 14.089844 34.574219 14.257812 34.335938 C 14.273438 34.3125 14.289062 34.292969 14.304688 34.269531 C 14.40625 34.132812 14.503906 33.992188 14.601562 33.851562 C 14.644531 33.792969 14.6875 33.734375 14.730469 33.675781 C 14.839844 33.519531 14.945312 33.367188 15.035156 33.199219 C 15.15625 32.988281 15.292969 32.785156 15.425781 32.582031 C 15.542969 32.402344 15.648438 32.222656 15.742188 32.03125 C 15.792969 31.9375 15.847656 31.847656 15.898438 31.757812 Z M 15.898438 31.757812 "/>
<path style=" stroke:none;fill-rule:nonzero;fill:rgb(27.058825%,33.333334%,37.254903%);fill-opacity:1;" d="M 24.023438 8.320312 C 24.140625 8.359375 24.140625 8.359375 24.1875 8.457031 C 24.28125 8.710938 24.367188 8.964844 24.445312 9.222656 C 24.492188 9.378906 24.546875 9.539062 24.601562 9.695312 C 24.742188 10.109375 24.867188 10.523438 24.984375 10.945312 C 25.042969 11.167969 25.109375 11.390625 25.179688 11.609375 C 25.257812 11.851562 25.324219 12.09375 25.382812 12.339844 C 25.390625 12.375 25.402344 12.410156 25.410156 12.445312 C 25.480469 12.734375 25.515625 13.011719 25.398438 13.296875 C 25.386719 13.332031 25.375 13.363281 25.363281 13.394531 C 25.332031 13.464844 25.304688 13.53125 25.277344 13.601562 C 25.179688 13.839844 25.097656 14.085938 25.023438 14.332031 C 25.011719 14.371094 25 14.410156 24.984375 14.453125 C 24.953125 14.570312 24.917969 14.6875 24.882812 14.804688 C 24.875 14.835938 24.863281 14.867188 24.855469 14.902344 C 24.707031 15.414062 24.609375 15.929688 24.511719 16.453125 C 24.496094 16.546875 24.472656 16.644531 24.453125 16.738281 C 24.402344 16.949219 24.378906 17.164062 24.351562 17.378906 C 24.347656 17.421875 24.34375 17.464844 24.335938 17.507812 C 24.304688 17.796875 24.28125 18.085938 24.269531 18.375 C 24.261719 18.519531 24.25 18.652344 24.21875 18.789062 C 24.191406 18.777344 24.167969 18.761719 24.140625 18.75 C 24.128906 18.648438 24.121094 18.546875 24.117188 18.445312 C 24.113281 18.378906 24.109375 18.3125 24.105469 18.246094 C 24.105469 18.207031 24.101562 18.171875 24.101562 18.136719 C 23.980469 15.941406 23.550781 13.726562 22.917969 11.625 C 22.777344 11.15625 22.804688 10.914062 23.007812 10.46875 C 23.042969 10.386719 23.074219 10.308594 23.109375 10.226562 C 23.140625 10.152344 23.171875 10.074219 23.203125 10 C 23.214844 9.972656 23.226562 9.945312 23.238281 9.914062 C 23.335938 9.6875 23.453125 9.46875 23.570312 9.25 C 23.734375 8.945312 23.878906 8.632812 24.023438 8.320312 Z M 24.023438 8.320312 "/>
<path style=" stroke:none;fill-rule:nonzero;fill:rgb(27.058825%,33.333334%,37.254903%);fill-opacity:1;" d="M 21.757812 31.835938 C 21.925781 31.976562 22.003906 32.152344 22.101562 32.347656 C 22.277344 32.695312 22.46875 33.035156 22.671875 33.371094 C 22.683594 33.394531 22.699219 33.417969 22.710938 33.441406 C 22.75 33.503906 22.789062 33.570312 22.828125 33.636719 C 22.863281 33.695312 22.863281 33.695312 22.902344 33.757812 C 22.960938 33.855469 23.023438 33.949219 23.085938 34.042969 C 23.144531 34.136719 23.164062 34.167969 23.164062 34.277344 C 23.109375 34.410156 23.050781 34.535156 22.984375 34.660156 C 22.957031 34.714844 22.929688 34.773438 22.898438 34.828125 C 22.886719 34.855469 22.871094 34.886719 22.855469 34.914062 C 22.816406 34.996094 22.773438 35.078125 22.734375 35.15625 C 22.550781 35.53125 22.355469 35.890625 22.148438 36.25 C 22.128906 36.285156 22.105469 36.324219 22.082031 36.363281 C 22.011719 36.484375 21.941406 36.609375 21.871094 36.730469 C 21.847656 36.769531 21.824219 36.808594 21.800781 36.847656 C 21.648438 37.109375 21.492188 37.363281 21.328125 37.617188 C 21.128906 37.441406 21.007812 37.230469 20.871094 37 C 20.835938 36.941406 20.835938 36.941406 20.800781 36.882812 C 20.726562 36.761719 20.65625 36.644531 20.585938 36.523438 C 20.566406 36.488281 20.546875 36.457031 20.527344 36.421875 C 20.425781 36.257812 20.332031 36.09375 20.234375 35.925781 C 20.199219 35.867188 20.164062 35.804688 20.125 35.746094 C 20.109375 35.714844 20.089844 35.6875 20.070312 35.65625 C 20.054688 35.628906 20.039062 35.605469 20.023438 35.582031 C 19.988281 35.476562 20.003906 35.417969 20.039062 35.3125 C 20.089844 35.214844 20.140625 35.121094 20.199219 35.027344 C 20.484375 34.527344 20.730469 34.011719 20.976562 33.492188 C 21.074219 33.285156 21.171875 33.082031 21.277344 32.878906 C 21.414062 32.609375 21.535156 32.332031 21.65625 32.054688 C 21.6875 31.980469 21.722656 31.910156 21.757812 31.835938 Z M 21.757812 31.835938 "/>
<path style=" stroke:none;fill-rule:nonzero;fill:rgb(27.058825%,33.333334%,37.254903%);fill-opacity:1;" d="M 21.289062 2.421875 C 21.539062 2.652344 21.671875 2.992188 21.820312 3.289062 C 21.878906 3.40625 21.949219 3.519531 22.019531 3.628906 C 22.175781 3.882812 22.304688 4.140625 22.421875 4.414062 C 22.46875 4.507812 22.515625 4.601562 22.5625 4.695312 C 22.589844 4.75 22.617188 4.804688 22.644531 4.859375 C 22.691406 4.953125 22.738281 5.042969 22.785156 5.136719 C 22.832031 5.234375 22.882812 5.335938 22.933594 5.433594 C 22.949219 5.464844 22.964844 5.496094 22.980469 5.527344 C 23.042969 5.65625 23.085938 5.753906 23.089844 5.894531 C 23.023438 6.082031 22.921875 6.238281 22.820312 6.40625 C 22.464844 6.992188 22.132812 7.585938 21.835938 8.203125 C 21.796875 8.203125 21.757812 8.203125 21.71875 8.203125 C 21.710938 8.183594 21.699219 8.160156 21.691406 8.140625 C 21.394531 7.4375 21.089844 6.734375 20.742188 6.054688 C 20.703125 5.972656 20.660156 5.894531 20.621094 5.8125 C 20.371094 5.285156 20.371094 5.285156 20.0625 4.792969 C 19.984375 4.664062 19.988281 4.601562 20 4.453125 C 20.046875 4.34375 20.046875 4.34375 20.113281 4.234375 C 20.140625 4.191406 20.164062 4.148438 20.191406 4.105469 C 20.21875 4.058594 20.246094 4.015625 20.273438 3.96875 C 20.300781 3.921875 20.328125 3.875 20.359375 3.828125 C 21.089844 2.621094 21.089844 2.621094 21.289062 2.421875 Z M 21.289062 2.421875 "/>
<path style=" stroke:none;fill-rule:nonzero;fill:rgb(27.058825%,33.333334%,37.64706%);fill-opacity:1;" d="M 5.585938 38.554688 C 5.6875 38.554688 5.792969 38.554688 5.898438 38.554688 C 5.898438 38.59375 5.898438 38.632812 5.898438 38.671875 C 5.808594 38.660156 5.714844 38.648438 5.625 38.632812 C 5.613281 38.605469 5.597656 38.582031 5.585938 38.554688 Z M 5.585938 38.554688 "/>
</g>
</svg>
